<?xml version="1.0" encoding="UTF-8"?>
<svg xmlns="http://www.w3.org/2000/svg" xmlns:xlink="http://www.w3.org/1999/xlink"
     width="800" height="463.6054421768707" viewBox="0 -463.6054421768707 800 463.6054421768707">
<defs>
<clipPath id="d0">
<rect x="10" y="-458.6054421768707" width="130.0" height="5" />
</clipPath>
<clipPath id="d1">
<rect x="140.0" y="-458.6054421768707" width="130.0" height="5" />
</clipPath>
<clipPath id="d2">
<rect x="270.0" y="-458.6054421768707" width="130.0" height="5" />
</clipPath>
<clipPath id="d3">
<rect x="400.0" y="-458.6054421768707" width="130.0" height="5" />
</clipPath>
<clipPath id="d4">
<rect x="530.0" y="-458.6054421768707" width="130.0" height="5" />
</clipPath>
<clipPath id="d5">
<rect x="660.0" y="-458.6054421768707" width="130.0" height="5" />
</clipPath>
<clipPath id="d6">
<rect x="10" y="-453.60544217687067" width="113.75" height="28.857142857142858" />
</clipPath>
<clipPath id="d7">
<rect x="10" y="-426.7482993197279" width="113.75" height="17.42857142857143" />
</clipPath>
<clipPath id="d8">
<rect x="10" y="-411.3197278911564" width="113.75" height="14.571428571428571" />
</clipPath>
<clipPath id="d9">
<rect x="10" y="-398.7482993197279" width="113.75" height="11.714285714285715" />
</clipPath>
<clipPath id="d10">
<rect x="10" y="-389.0340136054421" width="113.75" height="11.714285714285715" />
</clipPath>
<clipPath id="d11">
<rect x="140.0" y="-453.60544217687067" width="113.75" height="28.857142857142858" />
</clipPath>
<clipPath id="d12">
<rect x="140.0" y="-426.74829931972783" width="113.75" height="26.0" />
</clipPath>
<clipPath id="d13">
<rect x="140.0" y="-402.74829931972783" width="113.75" height="26.0" />
</clipPath>
<clipPath id="d14">
<rect x="140.0" y="-378.7482993197279" width="113.75" height="17.42857142857143" />
</clipPath>
<clipPath id="d15">
<rect x="140.0" y="-363.31972789115645" width="113.75" height="17.42857142857143" />
</clipPath>
<clipPath id="d16">
<rect x="140.0" y="-347.89115646258495" width="113.75" height="14.571428571428571" />
</clipPath>
<clipPath id="d17">
<rect x="140.0" y="-335.31972789115645" width="113.75" height="11.714285714285715" />
</clipPath>
<clipPath id="d18">
<rect x="270.0" y="-453.60544217687067" width="113.75" height="28.857142857142858" />
</clipPath>
<clipPath id="d19">
<rect x="270.0" y="-426.74829931972783" width="113.75" height="26.0" />
</clipPath>
<clipPath id="d20">
<rect x="270.0" y="-402.74829931972783" width="113.75" height="26.0" />
</clipPath>
<clipPath id="d21">
<rect x="270.0" y="-378.7482993197279" width="113.75" height="23.142857142857142" />
</clipPath>
<clipPath id="d22">
<rect x="270.0" y="-357.6054421768708" width="113.75" height="23.142857142857142" />
</clipPath>
<clipPath id="d23">
<rect x="270.0" y="-336.4625850340136" width="113.75" height="23.142857142857142" />
</clipPath>
<clipPath id="d24">
<rect x="270.0" y="-315.31972789115645" width="113.75" height="23.142857142857142" />
</clipPath>
<clipPath id="d25">
<rect x="270.0" y="-294.17687074829934" width="113.75" height="23.142857142857142" />
</clipPath>
<clipPath id="d26">
<rect x="270.0" y="-273.03401360544217" width="113.75" height="23.142857142857142" />
</clipPath>
<clipPath id="d27">
<rect x="270.0" y="-251.89115646258503" width="113.75" height="23.142857142857142" />
</clipPath>
<clipPath id="d28">
<rect x="270.0" y="-230.7482993197279" width="113.75" height="23.142857142857142" />
</clipPath>
<clipPath id="d29">
<rect x="270.0" y="-209.60544217687075" width="113.75" height="23.142857142857142" />
</clipPath>
<clipPath id="d30">
<rect x="270.0" y="-188.4625850340136" width="113.75" height="17.42857142857143" />
</clipPath>
<clipPath id="d31">
<rect x="270.0" y="-173.03401360544217" width="113.75" height="17.42857142857143" />
</clipPath>
<clipPath id="d32">
<rect x="270.0" y="-157.60544217687075" width="113.75" height="14.571428571428571" />
</clipPath>
<clipPath id="d33">
<rect x="270.0" y="-145.03401360544217" width="113.75" height="11.714285714285715" />
</clipPath>
<clipPath id="d34">
<rect x="270.0" y="-135.31972789115645" width="113.75" height="11.714285714285715" />
</clipPath>
<clipPath id="d35">
<rect x="270.0" y="-125.60544217687072" width="113.75" height="11.714285714285715" />
</clipPath>
<clipPath id="d36">
<rect x="400.0" y="-453.60544217687067" width="113.75" height="28.857142857142858" />
</clipPath>
<clipPath id="d37">
<rect x="400.0" y="-426.74829931972783" width="113.75" height="26.0" />
</clipPath>
<clipPath id="d38">
<rect x="400.0" y="-402.74829931972783" width="113.75" height="26.0" />
</clipPath>
<clipPath id="d39">
<rect x="400.0" y="-378.7482993197279" width="113.75" height="23.142857142857142" />
</clipPath>
<clipPath id="d40">
<rect x="400.0" y="-357.6054421768708" width="113.75" height="23.142857142857142" />
</clipPath>
<clipPath id="d41">
<rect x="400.0" y="-336.4625850340136" width="113.75" height="23.142857142857142" />
</clipPath>
<clipPath id="d42">
<rect x="400.0" y="-315.31972789115645" width="113.75" height="23.142857142857142" />
</clipPath>
<clipPath id="d43">
<rect x="400.0" y="-294.17687074829934" width="113.75" height="23.142857142857142" />
</clipPath>
<clipPath id="d44">
<rect x="400.0" y="-273.03401360544217" width="113.75" height="23.142857142857142" />
</clipPath>
<clipPath id="d45">
<rect x="400.0" y="-251.89115646258503" width="113.75" height="23.142857142857142" />
</clipPath>
<clipPath id="d46">
<rect x="400.0" y="-230.7482993197279" width="113.75" height="23.142857142857142" />
</clipPath>
<clipPath id="d47">
<rect x="400.0" y="-209.60544217687075" width="113.75" height="23.142857142857142" />
</clipPath>
<clipPath id="d48">
<rect x="400.0" y="-188.4625850340136" width="113.75" height="20.285714285714285" />
</clipPath>
<clipPath id="d49">
<rect x="400.0" y="-170.17687074829934" width="113.75" height="20.285714285714285" />
</clipPath>
<clipPath id="d50">
<rect x="400.0" y="-151.89115646258506" width="113.75" height="17.42857142857143" />
</clipPath>
<clipPath id="d51">
<rect x="400.0" y="-136.46258503401364" width="113.75" height="14.571428571428571" />
</clipPath>
<clipPath id="d52">
<rect x="530.0" y="-453.60544217687067" width="113.75" height="28.857142857142858" />
</clipPath>
<clipPath id="d53">
<rect x="530.0" y="-426.74829931972783" width="113.75" height="26.0" />
</clipPath>
<clipPath id="d54">
<rect x="530.0" y="-402.74829931972783" width="113.75" height="26.0" />
</clipPath>
<clipPath id="d55">
<rect x="530.0" y="-378.7482993197279" width="113.75" height="23.142857142857142" />
</clipPath>
<clipPath id="d56">
<rect x="530.0" y="-357.6054421768708" width="113.75" height="23.142857142857142" />
</clipPath>
<clipPath id="d57">
<rect x="530.0" y="-336.4625850340136" width="113.75" height="23.142857142857142" />
</clipPath>
<clipPath id="d58">
<rect x="530.0" y="-315.31972789115645" width="113.75" height="23.142857142857142" />
</clipPath>
<clipPath id="d59">
<rect x="530.0" y="-294.17687074829934" width="113.75" height="23.142857142857142" />
</clipPath>
<clipPath id="d60">
<rect x="530.0" y="-273.03401360544217" width="113.75" height="23.142857142857142" />
</clipPath>
<clipPath id="d61">
<rect x="530.0" y="-251.89115646258503" width="113.75" height="23.142857142857142" />
</clipPath>
<clipPath id="d62">
<rect x="530.0" y="-230.7482993197279" width="113.75" height="23.142857142857142" />
</clipPath>
<clipPath id="d63">
<rect x="530.0" y="-209.60544217687075" width="113.75" height="23.142857142857142" />
</clipPath>
<clipPath id="d64">
<rect x="530.0" y="-188.4625850340136" width="113.75" height="20.285714285714285" />
</clipPath>
<clipPath id="d65">
<rect x="530.0" y="-170.17687074829934" width="113.75" height="20.285714285714285" />
</clipPath>
<clipPath id="d66">
<rect x="530.0" y="-151.89115646258506" width="113.75" height="17.42857142857143" />
</clipPath>
<clipPath id="d67">
<rect x="530.0" y="-136.4625850340136" width="113.75" height="17.42857142857143" />
</clipPath>
<clipPath id="d68">
<rect x="530.0" y="-121.03401360544215" width="113.75" height="17.42857142857143" />
</clipPath>
<clipPath id="d69">
<rect x="530.0" y="-105.60544217687071" width="113.75" height="17.42857142857143" />
</clipPath>
<clipPath id="d70">
<rect x="530.0" y="-90.17687074829927" width="113.75" height="17.42857142857143" />
</clipPath>
<clipPath id="d71">
<rect x="660.0" y="-453.60544217687067" width="113.75" height="28.857142857142858" />
</clipPath>
<clipPath id="d72">
<rect x="660.0" y="-426.74829931972783" width="113.75" height="26.0" />
</clipPath>
<clipPath id="d73">
<rect x="660.0" y="-402.74829931972783" width="113.75" height="26.0" />
</clipPath>
<clipPath id="d74">
<rect x="660.0" y="-378.7482993197279" width="113.75" height="23.142857142857142" />
</clipPath>
<clipPath id="d75">
<rect x="660.0" y="-357.6054421768708" width="113.75" height="23.142857142857142" />
</clipPath>
<clipPath id="d76">
<rect x="660.0" y="-336.4625850340136" width="113.75" height="23.142857142857142" />
</clipPath>
<clipPath id="d77">
<rect x="660.0" y="-315.31972789115645" width="113.75" height="23.142857142857142" />
</clipPath>
<clipPath id="d78">
<rect x="660.0" y="-294.17687074829934" width="113.75" height="23.142857142857142" />
</clipPath>
<clipPath id="d79">
<rect x="660.0" y="-273.03401360544217" width="113.75" height="23.142857142857142" />
</clipPath>
<clipPath id="d80">
<rect x="660.0" y="-251.89115646258503" width="113.75" height="23.142857142857142" />
</clipPath>
<clipPath id="d81">
<rect x="660.0" y="-230.7482993197279" width="113.75" height="23.142857142857142" />
</clipPath>
<clipPath id="d82">
<rect x="660.0" y="-209.60544217687075" width="113.75" height="23.142857142857142" />
</clipPath>
<clipPath id="d83">
<rect x="660.0" y="-188.4625850340136" width="113.75" height="20.285714285714285" />
</clipPath>
<clipPath id="d84">
<rect x="660.0" y="-170.17687074829934" width="113.75" height="20.285714285714285" />
</clipPath>
<clipPath id="d85">
<rect x="660.0" y="-151.89115646258506" width="113.75" height="17.42857142857143" />
</clipPath>
<clipPath id="d86">
<rect x="660.0" y="-136.4625850340136" width="113.75" height="17.42857142857143" />
</clipPath>
<clipPath id="d87">
<rect x="660.0" y="-121.03401360544215" width="113.75" height="17.42857142857143" />
</clipPath>
<clipPath id="d88">
<rect x="660.0" y="-105.60544217687071" width="113.75" height="17.42857142857143" />
</clipPath>
<clipPath id="d89">
<rect x="660.0" y="-90.17687074829927" width="113.75" height="17.42857142857143" />
</clipPath>
</defs>
<rect x="0" y="-463.6054421768707" width="800" height="463.6054421768707" stroke-width="2" stroke="black" fill="white" />
<text x="10" y="-453.6054421768707" font-size="5" font-family="sans-serif" clip-path="url(#d0)" fill="black" dy="0em">2015-09-08</text>
<text x="140.0" y="-453.6054421768707" font-size="5" font-family="sans-serif" clip-path="url(#d1)" fill="black" dy="0em">2016-09-08</text>
<text x="270.0" y="-453.6054421768707" font-size="5" font-family="sans-serif" clip-path="url(#d2)" fill="black" dy="0em">2017-09-08</text>
<text x="400.0" y="-453.6054421768707" font-size="5" font-family="sans-serif" clip-path="url(#d3)" fill="black" dy="0em">2018-09-08</text>
<text x="530.0" y="-453.6054421768707" font-size="5" font-family="sans-serif" clip-path="url(#d4)" fill="black" dy="0em">2019-09-08</text>
<text x="660.0" y="-453.6054421768707" font-size="5" font-family="sans-serif" clip-path="url(#d5)" fill="black" dy="0em">2021-05-17</text>
<path d="M53.333333333333336,-426.74829931972783 L53.333333333333336,-451.60544217687067 L140.0,-451.60544217687067 L140.0,-426.74829931972783 Z" fill="#d9d9d9" stroke="white" opacity="0.5" stroke-width="0.5" />
<path d="M183.33333333333334,-426.74829931972783 L183.33333333333334,-451.60544217687067 L270.0,-451.60544217687067 L270.0,-426.74829931972783 Z" fill="#d9d9d9" stroke="white" opacity="0.5" stroke-width="0.5" />
<path d="M313.3333333333333,-426.74829931972783 L313.3333333333333,-451.60544217687067 L400.0,-451.60544217687067 L400.0,-426.74829931972783 Z" fill="#d9d9d9" stroke="white" opacity="0.5" stroke-width="0.5" />
<path d="M443.3333333333333,-426.74829931972783 L443.3333333333333,-451.60544217687067 L530.0,-451.60544217687067 L530.0,-426.74829931972783 Z" fill="#d9d9d9" stroke="white" opacity="0.5" stroke-width="0.5" />
<path d="M573.3333333333334,-426.74829931972783 L573.3333333333334,-451.60544217687067 L660.0,-451.60544217687067 L660.0,-426.74829931972783 Z" fill="#a1d99b" stroke="white" opacity="0.5" stroke-width="0.5" />
<path d="M53.333333333333336,-411.31972789115645 L53.333333333333336,-424.7482993197279 Q58.333333333333336,-424.7482993197279,97.16666666666666,-400.7482993197279 T140.0,-376.7482993197279 L140.0,-363.31972789115645 Q135.0,-363.31972789115645,96.16666666666666,-387.31972789115645 T53.333333333333336,-411.31972789115645 Z" fill="#d9d9d9" stroke="white" opacity="0.5" stroke-width="0.5" />
<path d="M183.33333333333334,-363.31972789115645 L183.33333333333334,-376.7482993197279 Q188.33333333333334,-376.7482993197279,227.16666666666669,-281.6054421768708 T270.0,-186.46258503401359 L270.0,-173.03401360544217 Q265.0,-173.03401360544217,226.16666666666669,-268.1768707482993 T183.33333333333334,-363.31972789115645 Z" fill="#d9d9d9" stroke="white" opacity="0.5" stroke-width="0.5" />
<path d="M53.333333333333336,-398.74829931972783 L53.333333333333336,-409.3197278911564 Q58.333333333333336,-409.3197278911564,97.16666666666666,-377.60544217687067 T140.0,-345.89115646258495 L140.0,-335.3197278911564 Q135.0,-335.3197278911564,96.16666666666666,-367.0340136054421 T53.333333333333336,-398.74829931972783 Z" fill="#d9d9d9" stroke="white" opacity="0.5" stroke-width="0.5" />
<path d="M183.33333333333334,-402.74829931972783 L183.33333333333334,-424.74829931972783 L270.0,-424.74829931972783 L270.0,-402.74829931972783 Z" fill="#d9d9d9" stroke="white" opacity="0.5" stroke-width="0.5" />
<path d="M313.3333333333333,-402.74829931972783 L313.3333333333333,-424.74829931972783 L400.0,-424.74829931972783 L400.0,-402.74829931972783 Z" fill="#d9d9d9" stroke="white" opacity="0.5" stroke-width="0.5" />
<path d="M443.3333333333333,-402.74829931972783 L443.3333333333333,-424.74829931972783 L530.0,-424.74829931972783 L530.0,-402.74829931972783 Z" fill="#d9d9d9" stroke="white" opacity="0.5" stroke-width="0.5" />
<path d="M573.3333333333334,-402.74829931972783 L573.3333333333334,-424.74829931972783 L660.0,-424.74829931972783 L660.0,-402.74829931972783 Z" fill="#d9d9d9" stroke="white" opacity="0.5" stroke-width="0.5" />
<path d="M183.33333333333334,-378.74829931972783 L183.33333333333334,-400.74829931972783 L270.0,-400.74829931972783 L270.0,-378.74829931972783 Z" fill="#d9d9d9" stroke="white" opacity="0.5" stroke-width="0.5" />
<path d="M313.3333333333333,-378.74829931972783 L313.3333333333333,-400.74829931972783 L400.0,-400.74829931972783 L400.0,-378.74829931972783 Z" fill="#d9d9d9" stroke="white" opacity="0.5" stroke-width="0.5" />
<path d="M443.3333333333333,-378.74829931972783 L443.3333333333333,-400.74829931972783 L530.0,-400.74829931972783 L530.0,-378.74829931972783 Z" fill="#d9d9d9" stroke="white" opacity="0.5" stroke-width="0.5" />
<path d="M573.3333333333334,-378.74829931972783 L573.3333333333334,-400.74829931972783 L660.0,-400.74829931972783 L660.0,-378.74829931972783 Z" fill="#d9d9d9" stroke="white" opacity="0.5" stroke-width="0.5" />
<path d="M183.33333333333334,-347.891156462585 L183.33333333333334,-361.31972789115645 Q188.33333333333334,-361.31972789115645,227.16666666666669,-266.17687074829934 T270.0,-171.03401360544214 L270.0,-157.60544217687072 Q265.0,-157.60544217687072,226.16666666666669,-252.74829931972786 T183.33333333333334,-347.891156462585 Z" fill="#d9d9d9" stroke="white" opacity="0.5" stroke-width="0.5" />
<path d="M313.3333333333333,-157.60544217687072 L313.3333333333333,-171.03401360544214 Q318.3333333333333,-171.03401360544214,357.16666666666663,-160.46258503401359 T400.0,-149.89115646258503 L400.0,-136.4625850340136 Q395.0,-136.4625850340136,356.16666666666663,-147.03401360544217 T313.3333333333333,-157.60544217687072 Z" fill="#d9d9d9" stroke="white" opacity="0.5" stroke-width="0.5" />
<path d="M313.3333333333333,-357.6054421768707 L313.3333333333333,-376.7482993197279 L400.0,-376.7482993197279 L400.0,-357.6054421768707 Z" fill="#d9d9d9" stroke="white" opacity="0.5" stroke-width="0.5" />
<path d="M443.3333333333333,-357.6054421768707 L443.3333333333333,-376.7482993197279 L530.0,-376.7482993197279 L530.0,-357.6054421768707 Z" fill="#d9d9d9" stroke="white" opacity="0.5" stroke-width="0.5" />
<path d="M573.3333333333334,-357.6054421768707 L573.3333333333334,-376.7482993197279 L660.0,-376.7482993197279 L660.0,-357.6054421768707 Z" fill="#d9d9d9" stroke="white" opacity="0.5" stroke-width="0.5" />
<path d="M313.3333333333333,-336.4625850340136 L313.3333333333333,-355.6054421768708 L400.0,-355.6054421768708 L400.0,-336.4625850340136 Z" fill="#a1d99b" stroke="white" opacity="0.5" stroke-width="0.5" />
<path d="M443.3333333333333,-336.4625850340136 L443.3333333333333,-355.6054421768708 L530.0,-355.6054421768708 L530.0,-336.4625850340136 Z" fill="#a1d99b" stroke="white" opacity="0.5" stroke-width="0.5" />
<path d="M573.3333333333334,-336.4625850340136 L573.3333333333334,-355.6054421768708 L660.0,-355.6054421768708 L660.0,-336.4625850340136 Z" fill="#a1d99b" stroke="white" opacity="0.5" stroke-width="0.5" />
<path d="M313.3333333333333,-315.31972789115645 L313.3333333333333,-334.4625850340136 L400.0,-334.4625850340136 L400.0,-315.31972789115645 Z" fill="#a1d99b" stroke="white" opacity="0.5" stroke-width="0.5" />
<path d="M443.3333333333333,-315.31972789115645 L443.3333333333333,-334.4625850340136 L530.0,-334.4625850340136 L530.0,-315.31972789115645 Z" fill="#a1d99b" stroke="white" opacity="0.5" stroke-width="0.5" />
<path d="M573.3333333333334,-315.31972789115645 L573.3333333333334,-334.4625850340136 L660.0,-334.4625850340136 L660.0,-315.31972789115645 Z" fill="#a1d99b" stroke="white" opacity="0.5" stroke-width="0.5" />
<path d="M313.3333333333333,-294.1768707482993 L313.3333333333333,-313.31972789115645 L400.0,-313.31972789115645 L400.0,-294.1768707482993 Z" fill="#a1d99b" stroke="white" opacity="0.5" stroke-width="0.5" />
<path d="M443.3333333333333,-294.1768707482993 L443.3333333333333,-313.31972789115645 L530.0,-313.31972789115645 L530.0,-294.1768707482993 Z" fill="#a1d99b" stroke="white" opacity="0.5" stroke-width="0.5" />
<path d="M573.3333333333334,-294.1768707482993 L573.3333333333334,-313.31972789115645 L660.0,-313.31972789115645 L660.0,-294.1768707482993 Z" fill="#a1d99b" stroke="white" opacity="0.5" stroke-width="0.5" />
<path d="M313.3333333333333,-273.03401360544217 L313.3333333333333,-292.17687074829934 L400.0,-292.17687074829934 L400.0,-273.03401360544217 Z" fill="#d9d9d9" stroke="white" opacity="0.5" stroke-width="0.5" />
<path d="M443.3333333333333,-273.03401360544217 L443.3333333333333,-292.17687074829934 L530.0,-292.17687074829934 L530.0,-273.03401360544217 Z" fill="#d9d9d9" stroke="white" opacity="0.5" stroke-width="0.5" />
<path d="M573.3333333333334,-273.03401360544217 L573.3333333333334,-292.17687074829934 L660.0,-292.17687074829934 L660.0,-273.03401360544217 Z" fill="#d9d9d9" stroke="white" opacity="0.5" stroke-width="0.5" />
<path d="M313.3333333333333,-251.89115646258503 L313.3333333333333,-271.03401360544217 L400.0,-271.03401360544217 L400.0,-251.89115646258503 Z" fill="#a1d99b" stroke="white" opacity="0.5" stroke-width="0.5" />
<path d="M443.3333333333333,-251.89115646258503 L443.3333333333333,-271.03401360544217 L530.0,-271.03401360544217 L530.0,-251.89115646258503 Z" fill="#a1d99b" stroke="white" opacity="0.5" stroke-width="0.5" />
<path d="M573.3333333333334,-251.89115646258503 L573.3333333333334,-271.03401360544217 L660.0,-271.03401360544217 L660.0,-251.89115646258503 Z" fill="#a1d99b" stroke="white" opacity="0.5" stroke-width="0.5" />
<path d="M313.3333333333333,-230.7482993197279 L313.3333333333333,-249.89115646258503 L400.0,-249.89115646258503 L400.0,-230.7482993197279 Z" fill="#a1d99b" stroke="white" opacity="0.5" stroke-width="0.5" />
<path d="M443.3333333333333,-230.7482993197279 L443.3333333333333,-249.89115646258503 L530.0,-249.89115646258503 L530.0,-230.7482993197279 Z" fill="#a1d99b" stroke="white" opacity="0.5" stroke-width="0.5" />
<path d="M573.3333333333334,-230.7482993197279 L573.3333333333334,-249.89115646258503 L660.0,-249.89115646258503 L660.0,-230.7482993197279 Z" fill="#a1d99b" stroke="white" opacity="0.5" stroke-width="0.5" />
<path d="M313.3333333333333,-209.60544217687075 L313.3333333333333,-228.7482993197279 L400.0,-228.7482993197279 L400.0,-209.60544217687075 Z" fill="#a1d99b" stroke="white" opacity="0.5" stroke-width="0.5" />
<path d="M443.3333333333333,-209.60544217687075 L443.3333333333333,-228.7482993197279 L530.0,-228.7482993197279 L530.0,-209.60544217687075 Z" fill="#a1d99b" stroke="white" opacity="0.5" stroke-width="0.5" />
<path d="M573.3333333333334,-209.60544217687075 L573.3333333333334,-228.7482993197279 L660.0,-228.7482993197279 L660.0,-209.60544217687075 Z" fill="#a1d99b" stroke="white" opacity="0.5" stroke-width="0.5" />
<path d="M313.3333333333333,-188.4625850340136 L313.3333333333333,-207.60544217687075 L400.0,-207.60544217687075 L400.0,-188.4625850340136 Z" fill="#a1d99b" stroke="white" opacity="0.5" stroke-width="0.5" />
<path d="M443.3333333333333,-188.4625850340136 L443.3333333333333,-207.60544217687075 L530.0,-207.60544217687075 L530.0,-188.4625850340136 Z" fill="#a1d99b" stroke="white" opacity="0.5" stroke-width="0.5" />
<path d="M573.3333333333334,-188.4625850340136 L573.3333333333334,-207.60544217687075 L660.0,-207.60544217687075 L660.0,-188.4625850340136 Z" fill="#a1d99b" stroke="white" opacity="0.5" stroke-width="0.5" />
<path d="M313.3333333333333,-145.03401360544217 L313.3333333333333,-155.60544217687075 Q318.3333333333333,-155.60544217687075,357.16666666666663,-145.0340136054422 T400.0,-134.46258503401364 L400.0,-123.89115646258506 Q395.0,-123.89115646258506,356.16666666666663,-134.4625850340136 T313.3333333333333,-145.03401360544217 Z" fill="#a1d99b" stroke="white" opacity="0.5" stroke-width="0.5" />
<path d="M443.3333333333333,-170.17687074829934 L443.3333333333333,-186.4625850340136 L530.0,-186.4625850340136 L530.0,-170.17687074829934 Z" fill="#d9d9d9" stroke="white" opacity="0.5" stroke-width="0.5" />
<path d="M573.3333333333334,-170.17687074829934 L573.3333333333334,-186.4625850340136 L660.0,-186.4625850340136 L660.0,-170.17687074829934 Z" fill="#d9d9d9" stroke="white" opacity="0.5" stroke-width="0.5" />
<path d="M443.3333333333333,-151.89115646258506 L443.3333333333333,-168.17687074829934 L530.0,-168.17687074829934 L530.0,-151.89115646258506 Z" fill="#d9d9d9" stroke="white" opacity="0.5" stroke-width="0.5" />
<path d="M573.3333333333334,-151.89115646258506 L573.3333333333334,-168.17687074829934 L660.0,-168.17687074829934 L660.0,-151.89115646258506 Z" fill="#d9d9d9" stroke="white" opacity="0.5" stroke-width="0.5" />
<path d="M573.3333333333334,-136.4625850340136 L573.3333333333334,-149.89115646258503 L660.0,-149.89115646258503 L660.0,-136.4625850340136 Z" fill="#d9d9d9" stroke="white" opacity="0.5" stroke-width="0.5" />
<path d="M573.3333333333334,-121.03401360544217 L573.3333333333334,-134.46258503401359 L660.0,-134.46258503401359 L660.0,-121.03401360544217 Z" fill="#d9d9d9" stroke="white" opacity="0.5" stroke-width="0.5" />
<path d="M573.3333333333334,-105.60544217687072 L573.3333333333334,-119.03401360544215 L660.0,-119.03401360544215 L660.0,-105.60544217687072 Z" fill="#d9d9d9" stroke="white" opacity="0.5" stroke-width="0.5" />
<path d="M573.3333333333334,-90.17687074829928 L573.3333333333334,-103.60544217687071 L660.0,-103.60544217687071 L660.0,-90.17687074829928 Z" fill="#a1d99b" stroke="white" opacity="0.5" stroke-width="0.5" />
<path d="M573.3333333333334,-74.74829931972783 L573.3333333333334,-88.17687074829927 L660.0,-88.17687074829927 L660.0,-74.74829931972783 Z" fill="#a1d99b" stroke="white" opacity="0.5" stroke-width="0.5" />
<rect x="10" y="-451.60544217687067" width="43.333333333333336" height="24.857142857142858" fill="#4BA167" stroke="#4BA167" />
<text x="69.58333333333334" y="-436.6768707482993" font-size="5" font-family="sans-serif" fill="black" clip-path="url(#d6)" dy="0em">pymongo</text>
<rect x="10" y="-424.7482993197279" width="43.333333333333336" height="13.428571428571429" fill="#4BA167" stroke="#4BA167" />
<text x="69.58333333333334" y="-415.53401360544217" font-size="5" font-family="sans-serif" fill="black" clip-path="url(#d7)" dy="0em">jsondatabase</text>
<rect x="10" y="-409.3197278911564" width="43.333333333333336" height="10.571428571428571" fill="#4BA167" stroke="#4BA167" />
<text x="69.58333333333334" y="-401.5340136054421" font-size="5" font-family="sans-serif" fill="black" clip-path="url(#d8)" dy="0em">fuzzywuzzy</text>
<rect x="10" y="-396.7482993197279" width="43.333333333333336" height="7.714285714285714" fill="#4BA167" stroke="#4BA167" />
<text x="69.58333333333334" y="-390.391156462585" font-size="5" font-family="sans-serif" fill="black" clip-path="url(#d9)" dy="0em">requests</text>
<rect x="10" y="-387.0340136054421" width="43.333333333333336" height="7.714285714285714" fill="#4BA167" stroke="#4BA167" />
<text x="69.58333333333334" y="-380.6768707482992" font-size="5" font-family="sans-serif" fill="black" clip-path="url(#d10)" dy="0em">requests-oauthlib</text>
<rect x="140.0" y="-451.60544217687067" width="43.333333333333336" height="24.857142857142858" fill="#d9d9d9" stroke="#d9d9d9" />
<text x="199.58333333333334" y="-436.6768707482993" font-size="5" font-family="sans-serif" fill="black" clip-path="url(#d11)" dy="0em">pymongo</text>
<rect x="140.0" y="-424.74829931972783" width="43.333333333333336" height="22.0" fill="#4BA167" stroke="#4BA167" />
<text x="199.58333333333334" y="-411.24829931972783" font-size="5" font-family="sans-serif" fill="black" clip-path="url(#d12)" dy="0em">nltk</text>
<rect x="140.0" y="-400.74829931972783" width="43.333333333333336" height="22.0" fill="#4BA167" stroke="#4BA167" />
<text x="199.58333333333334" y="-387.24829931972783" font-size="5" font-family="sans-serif" fill="black" clip-path="url(#d13)" dy="0em">sqlalchemy</text>
<rect x="140.0" y="-376.7482993197279" width="43.333333333333336" height="13.428571428571429" fill="#d9d9d9" stroke="#d9d9d9" />
<text x="199.58333333333334" y="-367.53401360544217" font-size="5" font-family="sans-serif" fill="black" clip-path="url(#d14)" dy="0em">jsondatabase</text>
<rect x="140.0" y="-361.31972789115645" width="43.333333333333336" height="13.428571428571429" fill="#4BA167" stroke="#4BA167" />
<text x="199.58333333333334" y="-352.1054421768707" font-size="5" font-family="sans-serif" fill="black" clip-path="url(#d15)" dy="0em">python-twitter</text>
<rect x="140.0" y="-345.89115646258495" width="43.333333333333336" height="10.571428571428571" fill="#A04B83" stroke="#A04B83" />
<text x="199.58333333333334" y="-338.10544217687067" font-size="5" font-family="sans-serif" fill="black" clip-path="url(#d16)" dy="0em">fuzzywuzzy</text>
<rect x="140.0" y="-333.31972789115645" width="43.333333333333336" height="7.714285714285714" fill="#4BA167" stroke="#4BA167" />
<text x="199.58333333333334" y="-326.96258503401356" font-size="5" font-family="sans-serif" fill="black" clip-path="url(#d17)" dy="0em">textblob</text>
<rect x="270.0" y="-451.60544217687067" width="43.333333333333336" height="24.857142857142858" fill="#d9d9d9" stroke="#d9d9d9" />
<text x="329.5833333333333" y="-436.6768707482993" font-size="5" font-family="sans-serif" fill="black" clip-path="url(#d18)" dy="0em">pymongo</text>
<rect x="270.0" y="-424.74829931972783" width="43.333333333333336" height="22.0" fill="#d9d9d9" stroke="#d9d9d9" />
<text x="329.5833333333333" y="-411.24829931972783" font-size="5" font-family="sans-serif" fill="black" clip-path="url(#d19)" dy="0em">nltk</text>
<rect x="270.0" y="-400.74829931972783" width="43.333333333333336" height="22.0" fill="#d9d9d9" stroke="#d9d9d9" />
<text x="329.5833333333333" y="-387.24829931972783" font-size="5" font-family="sans-serif" fill="black" clip-path="url(#d20)" dy="0em">sqlalchemy</text>
<rect x="270.0" y="-376.7482993197279" width="43.333333333333336" height="19.142857142857142" fill="#4BA167" stroke="#4BA167" />
<text x="329.5833333333333" y="-364.6768707482993" font-size="5" font-family="sans-serif" fill="black" clip-path="url(#d21)" dy="0em">chatterbot-corpus</text>
<rect x="270.0" y="-355.6054421768708" width="43.333333333333336" height="19.142857142857142" fill="#4BA167" stroke="#4BA167" />
<text x="329.5833333333333" y="-343.53401360544217" font-size="5" font-family="sans-serif" fill="black" clip-path="url(#d22)" dy="0em">coveralls</text>
<rect x="270.0" y="-334.4625850340136" width="43.333333333333336" height="19.142857142857142" fill="#4BA167" stroke="#4BA167" />
<text x="329.5833333333333" y="-322.391156462585" font-size="5" font-family="sans-serif" fill="black" clip-path="url(#d23)" dy="0em">flake8</text>
<rect x="270.0" y="-313.31972789115645" width="43.333333333333336" height="19.142857142857142" fill="#4BA167" stroke="#4BA167" />
<text x="329.5833333333333" y="-301.24829931972783" font-size="5" font-family="sans-serif" fill="black" clip-path="url(#d24)" dy="0em">nose</text>
<rect x="270.0" y="-292.17687074829934" width="43.333333333333336" height="19.142857142857142" fill="#4BA167" stroke="#4BA167" />
<text x="329.5833333333333" y="-280.1054421768707" font-size="5" font-family="sans-serif" fill="black" clip-path="url(#d25)" dy="0em">python-dateutil</text>
<rect x="270.0" y="-271.03401360544217" width="43.333333333333336" height="19.142857142857142" fill="#4BA167" stroke="#4BA167" />
<text x="329.5833333333333" y="-258.9625850340136" font-size="5" font-family="sans-serif" fill="black" clip-path="url(#d26)" dy="0em">sphinx</text>
<rect x="270.0" y="-249.89115646258503" width="43.333333333333336" height="19.142857142857142" fill="#4BA167" stroke="#4BA167" />
<text x="329.5833333333333" y="-237.81972789115648" font-size="5" font-family="sans-serif" fill="black" clip-path="url(#d27)" dy="0em">sphinx_rtd_theme</text>
<rect x="270.0" y="-228.7482993197279" width="43.333333333333336" height="19.142857142857142" fill="#4BA167" stroke="#4BA167" />
<text x="329.5833333333333" y="-216.67687074829934" font-size="5" font-family="sans-serif" fill="black" clip-path="url(#d28)" dy="0em">twine</text>
<rect x="270.0" y="-207.60544217687075" width="43.333333333333336" height="19.142857142857142" fill="#4BA167" stroke="#4BA167" />
<text x="329.5833333333333" y="-195.5340136054422" font-size="5" font-family="sans-serif" fill="black" clip-path="url(#d29)" dy="0em">twython</text>
<rect x="270.0" y="-186.46258503401359" width="43.333333333333336" height="13.428571428571429" fill="#A04B83" stroke="#A04B83" />
<text x="329.5833333333333" y="-177.2482993197279" font-size="5" font-family="sans-serif" fill="black" clip-path="url(#d30)" dy="0em">jsondatabase</text>
<rect x="270.0" y="-171.03401360544214" width="43.333333333333336" height="13.428571428571429" fill="#d9d9d9" stroke="#d9d9d9" />
<text x="329.5833333333333" y="-161.81972789115645" font-size="5" font-family="sans-serif" fill="black" clip-path="url(#d31)" dy="0em">python-twitter</text>
<rect x="270.0" y="-155.60544217687075" width="43.333333333333336" height="10.571428571428571" fill="#4BA167" stroke="#4BA167" />
<text x="329.5833333333333" y="-147.81972789115645" font-size="5" font-family="sans-serif" fill="black" clip-path="url(#d32)" dy="0em">factory-boy</text>
<rect x="270.0" y="-143.03401360544217" width="43.333333333333336" height="7.714285714285714" fill="#4BA167" stroke="#4BA167" />
<text x="329.5833333333333" y="-136.6768707482993" font-size="5" font-family="sans-serif" fill="black" clip-path="url(#d33)" dy="0em">mock</text>
<rect x="270.0" y="-133.31972789115645" width="43.333333333333336" height="7.714285714285714" fill="#4BA167" stroke="#4BA167" />
<text x="329.5833333333333" y="-126.96258503401359" font-size="5" font-family="sans-serif" fill="black" clip-path="url(#d34)" dy="0em">nose-exclude</text>
<rect x="270.0" y="-123.60544217687071" width="43.333333333333336" height="7.714285714285714" fill="#4BA167" stroke="#4BA167" />
<text x="329.5833333333333" y="-117.24829931972786" font-size="5" font-family="sans-serif" fill="black" clip-path="url(#d35)" dy="0em">pip</text>
<rect x="400.0" y="-451.60544217687067" width="43.333333333333336" height="24.857142857142858" fill="#d9d9d9" stroke="#d9d9d9" />
<text x="459.5833333333333" y="-436.6768707482993" font-size="5" font-family="sans-serif" fill="black" clip-path="url(#d36)" dy="0em">pymongo</text>
<rect x="400.0" y="-424.74829931972783" width="43.333333333333336" height="22.0" fill="#d9d9d9" stroke="#d9d9d9" />
<text x="459.5833333333333" y="-411.24829931972783" font-size="5" font-family="sans-serif" fill="black" clip-path="url(#d37)" dy="0em">nltk</text>
<rect x="400.0" y="-400.74829931972783" width="43.333333333333336" height="22.0" fill="#d9d9d9" stroke="#d9d9d9" />
<text x="459.5833333333333" y="-387.24829931972783" font-size="5" font-family="sans-serif" fill="black" clip-path="url(#d38)" dy="0em">sqlalchemy</text>
<rect x="400.0" y="-376.7482993197279" width="43.333333333333336" height="19.142857142857142" fill="#d9d9d9" stroke="#d9d9d9" />
<text x="459.5833333333333" y="-364.6768707482993" font-size="5" font-family="sans-serif" fill="black" clip-path="url(#d39)" dy="0em">chatterbot-corpus</text>
<rect x="400.0" y="-355.6054421768708" width="43.333333333333336" height="19.142857142857142" fill="#a1d99b" stroke="#a1d99b" />
<text x="459.5833333333333" y="-343.53401360544217" font-size="5" font-family="sans-serif" fill="black" clip-path="url(#d40)" dy="0em">coveralls</text>
<rect x="400.0" y="-334.4625850340136" width="43.333333333333336" height="19.142857142857142" fill="#a1d99b" stroke="#a1d99b" />
<text x="459.5833333333333" y="-322.391156462585" font-size="5" font-family="sans-serif" fill="black" clip-path="url(#d41)" dy="0em">flake8</text>
<rect x="400.0" y="-313.31972789115645" width="43.333333333333336" height="19.142857142857142" fill="#a1d99b" stroke="#a1d99b" />
<text x="459.5833333333333" y="-301.24829931972783" font-size="5" font-family="sans-serif" fill="black" clip-path="url(#d42)" dy="0em">nose</text>
<rect x="400.0" y="-292.17687074829934" width="43.333333333333336" height="19.142857142857142" fill="#d9d9d9" stroke="#d9d9d9" />
<text x="459.5833333333333" y="-280.1054421768707" font-size="5" font-family="sans-serif" fill="black" clip-path="url(#d43)" dy="0em">python-dateutil</text>
<rect x="400.0" y="-271.03401360544217" width="43.333333333333336" height="19.142857142857142" fill="#a1d99b" stroke="#a1d99b" />
<text x="459.5833333333333" y="-258.9625850340136" font-size="5" font-family="sans-serif" fill="black" clip-path="url(#d44)" dy="0em">sphinx</text>
<rect x="400.0" y="-249.89115646258503" width="43.333333333333336" height="19.142857142857142" fill="#a1d99b" stroke="#a1d99b" />
<text x="459.5833333333333" y="-237.81972789115648" font-size="5" font-family="sans-serif" fill="black" clip-path="url(#d45)" dy="0em">sphinx_rtd_theme</text>
<rect x="400.0" y="-228.7482993197279" width="43.333333333333336" height="19.142857142857142" fill="#a1d99b" stroke="#a1d99b" />
<text x="459.5833333333333" y="-216.67687074829934" font-size="5" font-family="sans-serif" fill="black" clip-path="url(#d46)" dy="0em">twine</text>
<rect x="400.0" y="-207.60544217687075" width="43.333333333333336" height="19.142857142857142" fill="#a1d99b" stroke="#a1d99b" />
<text x="459.5833333333333" y="-195.5340136054422" font-size="5" font-family="sans-serif" fill="black" clip-path="url(#d47)" dy="0em">twython</text>
<rect x="400.0" y="-186.4625850340136" width="43.333333333333336" height="16.285714285714285" fill="#4BA167" stroke="#4BA167" />
<text x="459.5833333333333" y="-175.81972789115648" font-size="5" font-family="sans-serif" fill="black" clip-path="url(#d48)" dy="0em">mathparse</text>
<rect x="400.0" y="-168.17687074829934" width="43.333333333333336" height="16.285714285714285" fill="#4BA167" stroke="#4BA167" />
<text x="459.5833333333333" y="-157.5340136054422" font-size="5" font-family="sans-serif" fill="black" clip-path="url(#d49)" dy="0em">pint</text>
<rect x="400.0" y="-149.89115646258503" width="43.333333333333336" height="13.428571428571429" fill="#A04B83" stroke="#A04B83" />
<text x="459.5833333333333" y="-140.67687074829934" font-size="5" font-family="sans-serif" fill="black" clip-path="url(#d50)" dy="0em">python-twitter</text>
<rect x="400.0" y="-134.46258503401364" width="43.333333333333336" height="10.571428571428571" fill="#A04B83" stroke="#A04B83" />
<text x="459.5833333333333" y="-126.67687074829934" font-size="5" font-family="sans-serif" fill="black" clip-path="url(#d51)" dy="0em">factory-boy</text>
<rect x="530.0" y="-451.60544217687067" width="43.333333333333336" height="24.857142857142858" fill="#a1d99b" stroke="#a1d99b" />
<text x="589.5833333333334" y="-436.6768707482993" font-size="5" font-family="sans-serif" fill="black" clip-path="url(#d52)" dy="0em">pymongo</text>
<rect x="530.0" y="-424.74829931972783" width="43.333333333333336" height="22.0" fill="#d9d9d9" stroke="#d9d9d9" />
<text x="589.5833333333334" y="-411.24829931972783" font-size="5" font-family="sans-serif" fill="black" clip-path="url(#d53)" dy="0em">nltk</text>
<rect x="530.0" y="-400.74829931972783" width="43.333333333333336" height="22.0" fill="#d9d9d9" stroke="#d9d9d9" />
<text x="589.5833333333334" y="-387.24829931972783" font-size="5" font-family="sans-serif" fill="black" clip-path="url(#d54)" dy="0em">sqlalchemy</text>
<rect x="530.0" y="-376.7482993197279" width="43.333333333333336" height="19.142857142857142" fill="#d9d9d9" stroke="#d9d9d9" />
<text x="589.5833333333334" y="-364.6768707482993" font-size="5" font-family="sans-serif" fill="black" clip-path="url(#d55)" dy="0em">chatterbot-corpus</text>
<rect x="530.0" y="-355.6054421768708" width="43.333333333333336" height="19.142857142857142" fill="#a1d99b" stroke="#a1d99b" />
<text x="589.5833333333334" y="-343.53401360544217" font-size="5" font-family="sans-serif" fill="black" clip-path="url(#d56)" dy="0em">coveralls</text>
<rect x="530.0" y="-334.4625850340136" width="43.333333333333336" height="19.142857142857142" fill="#a1d99b" stroke="#a1d99b" />
<text x="589.5833333333334" y="-322.391156462585" font-size="5" font-family="sans-serif" fill="black" clip-path="url(#d57)" dy="0em">flake8</text>
<rect x="530.0" y="-313.31972789115645" width="43.333333333333336" height="19.142857142857142" fill="#a1d99b" stroke="#a1d99b" />
<text x="589.5833333333334" y="-301.24829931972783" font-size="5" font-family="sans-serif" fill="black" clip-path="url(#d58)" dy="0em">nose</text>
<rect x="530.0" y="-292.17687074829934" width="43.333333333333336" height="19.142857142857142" fill="#d9d9d9" stroke="#d9d9d9" />
<text x="589.5833333333334" y="-280.1054421768707" font-size="5" font-family="sans-serif" fill="black" clip-path="url(#d59)" dy="0em">python-dateutil</text>
<rect x="530.0" y="-271.03401360544217" width="43.333333333333336" height="19.142857142857142" fill="#a1d99b" stroke="#a1d99b" />
<text x="589.5833333333334" y="-258.9625850340136" font-size="5" font-family="sans-serif" fill="black" clip-path="url(#d60)" dy="0em">sphinx</text>
<rect x="530.0" y="-249.89115646258503" width="43.333333333333336" height="19.142857142857142" fill="#a1d99b" stroke="#a1d99b" />
<text x="589.5833333333334" y="-237.81972789115648" font-size="5" font-family="sans-serif" fill="black" clip-path="url(#d61)" dy="0em">sphinx_rtd_theme</text>
<rect x="530.0" y="-228.7482993197279" width="43.333333333333336" height="19.142857142857142" fill="#a1d99b" stroke="#a1d99b" />
<text x="589.5833333333334" y="-216.67687074829934" font-size="5" font-family="sans-serif" fill="black" clip-path="url(#d62)" dy="0em">twine</text>
<rect x="530.0" y="-207.60544217687075" width="43.333333333333336" height="19.142857142857142" fill="#a1d99b" stroke="#a1d99b" />
<text x="589.5833333333334" y="-195.5340136054422" font-size="5" font-family="sans-serif" fill="black" clip-path="url(#d63)" dy="0em">twython</text>
<rect x="530.0" y="-186.4625850340136" width="43.333333333333336" height="16.285714285714285" fill="#d9d9d9" stroke="#d9d9d9" />
<text x="589.5833333333334" y="-175.81972789115648" font-size="5" font-family="sans-serif" fill="black" clip-path="url(#d64)" dy="0em">mathparse</text>
<rect x="530.0" y="-168.17687074829934" width="43.333333333333336" height="16.285714285714285" fill="#d9d9d9" stroke="#d9d9d9" />
<text x="589.5833333333334" y="-157.5340136054422" font-size="5" font-family="sans-serif" fill="black" clip-path="url(#d65)" dy="0em">pint</text>
<rect x="530.0" y="-149.89115646258503" width="43.333333333333336" height="13.428571428571429" fill="#4BA167" stroke="#4BA167" />
<text x="589.5833333333334" y="-140.67687074829934" font-size="5" font-family="sans-serif" fill="black" clip-path="url(#d66)" dy="0em">pytz</text>
<rect x="530.0" y="-134.46258503401359" width="43.333333333333336" height="13.428571428571429" fill="#4BA167" stroke="#4BA167" />
<text x="589.5833333333334" y="-125.24829931972788" font-size="5" font-family="sans-serif" fill="black" clip-path="url(#d67)" dy="0em">pyyaml</text>
<rect x="530.0" y="-119.03401360544215" width="43.333333333333336" height="13.428571428571429" fill="#4BA167" stroke="#4BA167" />
<text x="589.5833333333334" y="-109.81972789115643" font-size="5" font-family="sans-serif" fill="black" clip-path="url(#d68)" dy="0em">spacy</text>
<rect x="530.0" y="-103.60544217687071" width="43.333333333333336" height="13.428571428571429" fill="#4BA167" stroke="#4BA167" />
<text x="589.5833333333334" y="-94.39115646258499" font-size="5" font-family="sans-serif" fill="black" clip-path="url(#d69)" dy="0em">spacy_de_core_news_sm-2.1.0</text>
<rect x="530.0" y="-88.17687074829927" width="43.333333333333336" height="13.428571428571429" fill="#4BA167" stroke="#4BA167" />
<text x="589.5833333333334" y="-78.96258503401354" font-size="5" font-family="sans-serif" fill="black" clip-path="url(#d70)" dy="0em">spacy_en_core_web_sm-2.1.0</text>
<rect x="660.0" y="-451.60544217687067" width="43.333333333333336" height="24.857142857142858" fill="#a1d99b" stroke="#a1d99b" />
<text x="719.5833333333334" y="-436.6768707482993" font-size="5" font-family="sans-serif" fill="black" clip-path="url(#d71)" dy="0em">pymongo</text>
<rect x="660.0" y="-424.74829931972783" width="43.333333333333336" height="22.0" fill="#a1d99b" stroke="#a1d99b" />
<text x="719.5833333333334" y="-411.24829931972783" font-size="5" font-family="sans-serif" fill="black" clip-path="url(#d72)" dy="0em">nltk</text>
<rect x="660.0" y="-400.74829931972783" width="43.333333333333336" height="22.0" fill="#d9d9d9" stroke="#d9d9d9" />
<text x="719.5833333333334" y="-387.24829931972783" font-size="5" font-family="sans-serif" fill="black" clip-path="url(#d73)" dy="0em">sqlalchemy</text>
<rect x="660.0" y="-376.7482993197279" width="43.333333333333336" height="19.142857142857142" fill="#a1d99b" stroke="#a1d99b" />
<text x="719.5833333333334" y="-364.6768707482993" font-size="5" font-family="sans-serif" fill="black" clip-path="url(#d74)" dy="0em">chatterbot-corpus</text>
<rect x="660.0" y="-355.6054421768708" width="43.333333333333336" height="19.142857142857142" fill="#a1d99b" stroke="#a1d99b" />
<text x="719.5833333333334" y="-343.53401360544217" font-size="5" font-family="sans-serif" fill="black" clip-path="url(#d75)" dy="0em">coveralls</text>
<rect x="660.0" y="-334.4625850340136" width="43.333333333333336" height="19.142857142857142" fill="#a1d99b" stroke="#a1d99b" />
<text x="719.5833333333334" y="-322.391156462585" font-size="5" font-family="sans-serif" fill="black" clip-path="url(#d76)" dy="0em">flake8</text>
<rect x="660.0" y="-313.31972789115645" width="43.333333333333336" height="19.142857142857142" fill="#a1d99b" stroke="#a1d99b" />
<text x="719.5833333333334" y="-301.24829931972783" font-size="5" font-family="sans-serif" fill="black" clip-path="url(#d77)" dy="0em">nose</text>
<rect x="660.0" y="-292.17687074829934" width="43.333333333333336" height="19.142857142857142" fill="#d9d9d9" stroke="#d9d9d9" />
<text x="719.5833333333334" y="-280.1054421768707" font-size="5" font-family="sans-serif" fill="black" clip-path="url(#d78)" dy="0em">python-dateutil</text>
<rect x="660.0" y="-271.03401360544217" width="43.333333333333336" height="19.142857142857142" fill="#a1d99b" stroke="#a1d99b" />
<text x="719.5833333333334" y="-258.9625850340136" font-size="5" font-family="sans-serif" fill="black" clip-path="url(#d79)" dy="0em">sphinx</text>
<rect x="660.0" y="-249.89115646258503" width="43.333333333333336" height="19.142857142857142" fill="#a1d99b" stroke="#a1d99b" />
<text x="719.5833333333334" y="-237.81972789115648" font-size="5" font-family="sans-serif" fill="black" clip-path="url(#d80)" dy="0em">sphinx_rtd_theme</text>
<rect x="660.0" y="-228.7482993197279" width="43.333333333333336" height="19.142857142857142" fill="#a1d99b" stroke="#a1d99b" />
<text x="719.5833333333334" y="-216.67687074829934" font-size="5" font-family="sans-serif" fill="black" clip-path="url(#d81)" dy="0em">twine</text>
<rect x="660.0" y="-207.60544217687075" width="43.333333333333336" height="19.142857142857142" fill="#a1d99b" stroke="#a1d99b" />
<text x="719.5833333333334" y="-195.5340136054422" font-size="5" font-family="sans-serif" fill="black" clip-path="url(#d82)" dy="0em">twython</text>
<rect x="660.0" y="-186.4625850340136" width="43.333333333333336" height="16.285714285714285" fill="#d9d9d9" stroke="#d9d9d9" />
<text x="719.5833333333334" y="-175.81972789115648" font-size="5" font-family="sans-serif" fill="black" clip-path="url(#d83)" dy="0em">mathparse</text>
<rect x="660.0" y="-168.17687074829934" width="43.333333333333336" height="16.285714285714285" fill="#a1d99b" stroke="#a1d99b" />
<text x="719.5833333333334" y="-157.5340136054422" font-size="5" font-family="sans-serif" fill="black" clip-path="url(#d84)" dy="0em">pint</text>
<rect x="660.0" y="-149.89115646258503" width="43.333333333333336" height="13.428571428571429" fill="#d9d9d9" stroke="#d9d9d9" />
<text x="719.5833333333334" y="-140.67687074829934" font-size="5" font-family="sans-serif" fill="black" clip-path="url(#d85)" dy="0em">pytz</text>
<rect x="660.0" y="-134.46258503401359" width="43.333333333333336" height="13.428571428571429" fill="#a1d99b" stroke="#a1d99b" />
<text x="719.5833333333334" y="-125.24829931972788" font-size="5" font-family="sans-serif" fill="black" clip-path="url(#d86)" dy="0em">pyyaml</text>
<rect x="660.0" y="-119.03401360544215" width="43.333333333333336" height="13.428571428571429" fill="#a1d99b" stroke="#a1d99b" />
<text x="719.5833333333334" y="-109.81972789115643" font-size="5" font-family="sans-serif" fill="black" clip-path="url(#d87)" dy="0em">spacy</text>
<rect x="660.0" y="-103.60544217687071" width="43.333333333333336" height="13.428571428571429" fill="#a1d99b" stroke="#a1d99b" />
<text x="719.5833333333334" y="-94.39115646258499" font-size="5" font-family="sans-serif" fill="black" clip-path="url(#d88)" dy="0em">spacy_de_core_news_sm-2.1.0</text>
<rect x="660.0" y="-88.17687074829927" width="43.333333333333336" height="13.428571428571429" fill="#a1d99b" stroke="#a1d99b" />
<text x="719.5833333333334" y="-78.96258503401354" font-size="5" font-family="sans-serif" fill="black" clip-path="url(#d89)" dy="0em">spacy_en_core_web_sm-2.1.0</text>
<text x="10" y="-72.12244897959178" font-size="5" font-family="sans-serif" fill="black" dy="0em">Legend</text>
<rect x="10" y="-62.12244897959177" width="43.333333333333336" height="17.374149659863924" fill="#a1d99b" stroke="#a1d99b" />
<text x="64.16666666666667" y="-50.93537414965981" font-size="5" fill="black" dy="0em">B_Developers Requirements</text>
<rect x="10" y="-39.74829931972785" width="43.333333333333336" height="17.374149659863924" fill="#d9d9d9" stroke="#d9d9d9" />
<text x="64.16666666666667" y="-28.561224489795883" font-size="5" fill="black" dy="0em">A_Requirements</text>
</svg>