<?xml version="1.0" encoding="UTF-8"?>
<svg xmlns="http://www.w3.org/2000/svg" xmlns:xlink="http://www.w3.org/1999/xlink"
     width="1200" height="250" viewBox="0 -250 1200 250">
<defs>
</defs>
<rect x="0" y="-250" width="1200" height="250" stroke-width="2" stroke="black" fill="white" />
<text x="35" y="-215" font-size="4" font-family="sans-serif" fill="black" dy="0em">[2008/09/06]</text>
<text x="80.2" y="-215" font-size="4" font-family="sans-serif" fill="black" dy="0em">[2009/06/18]</text>
<text x="125.40000000000002" y="-215" font-size="4" font-family="sans-serif" fill="black" dy="0em">v1.0 [2010/05/05]</text>
<text x="170.60000000000002" y="-215" font-size="4" font-family="sans-serif" fill="black" dy="0em">v1.0 [2011/06/06]</text>
<text x="215.80000000000004" y="-215" font-size="4" font-family="sans-serif" fill="black" dy="0em">v1.0 [2012/05/17]</text>
<text x="261.0" y="-215" font-size="4" font-family="sans-serif" fill="black" dy="0em">v1.0 [2013/06/24&amp;25]</text>
<text x="306.20000000000005" y="-215" font-size="4" font-family="sans-serif" fill="black" dy="0em">v2.0</text>
<text x="351.4" y="-215" font-size="4" font-family="sans-serif" fill="black" dy="0em">v2.1</text>
<text x="396.6" y="-215" font-size="4" font-family="sans-serif" fill="black" dy="0em">v2.2</text>
<text x="441.79999999999995" y="-215" font-size="4" font-family="sans-serif" fill="black" dy="0em">v2.3</text>
<text x="487.0" y="-215" font-size="4" font-family="sans-serif" fill="black" dy="0em">v2.4</text>
<text x="532.1999999999999" y="-215" font-size="4" font-family="sans-serif" fill="black" dy="0em">v2.5</text>
<text x="577.4" y="-215" font-size="4" font-family="sans-serif" fill="black" dy="0em">v2.6</text>
<text x="622.5999999999999" y="-215" font-size="4" font-family="sans-serif" fill="black" dy="0em">v2.8</text>
<text x="667.8" y="-215" font-size="4" font-family="sans-serif" fill="black" dy="0em">v2.9</text>
<text x="712.9999999999999" y="-215" font-size="4" font-family="sans-serif" fill="black" dy="0em">v2.10</text>
<text x="758.1999999999999" y="-215" font-size="4" font-family="sans-serif" fill="black" dy="0em">v2.11</text>
<text x="803.4" y="-215" font-size="4" font-family="sans-serif" fill="black" dy="0em">v2.12</text>
<text x="848.5999999999999" y="-215" font-size="4" font-family="sans-serif" fill="black" dy="0em">v3.0</text>
<text x="893.8" y="-215" font-size="4" font-family="sans-serif" fill="black" dy="0em">v3.1</text>
<text x="939.0" y="-215" font-size="4" font-family="sans-serif" fill="black" dy="0em">v3.2</text>
<text x="984.1999999999999" y="-215" font-size="4" font-family="sans-serif" fill="black" dy="0em">v3.3</text>
<text x="1029.3999999999999" y="-215" font-size="4" font-family="sans-serif" fill="black" dy="0em">v4.0</text>
<text x="1074.6" y="-215" font-size="4" font-family="sans-serif" fill="black" dy="0em">v5.0</text>
<text x="1119.8" y="-215" font-size="4" font-family="sans-serif" fill="black" dy="0em">v6.0</text>
<path d="M50.06666666666667,-189.05430711610487 L50.06666666666667,-206.90074906367042 L80.2,-206.90074906367042 L80.2,-189.05430711610487 Z" fill="#a1d99b" stroke="white" opacity="0.5" stroke-width="0.5" />
<path d="M95.26666666666667,-189.05430711610487 L95.26666666666667,-206.90074906367042 L125.40000000000002,-206.90074906367042 L125.40000000000002,-189.05430711610487 Z" fill="#a1d99b" stroke="white" opacity="0.5" stroke-width="0.5" />
<path d="M140.4666666666667,-189.05430711610487 L140.4666666666667,-206.90074906367042 L170.60000000000002,-206.90074906367042 L170.60000000000002,-189.05430711610487 Z" fill="#a1d99b" stroke="white" opacity="0.5" stroke-width="0.5" />
<path d="M185.66666666666669,-189.05430711610487 L185.66666666666669,-206.90074906367042 L215.80000000000004,-206.90074906367042 L215.80000000000004,-189.05430711610487 Z" fill="#a1d99b" stroke="white" opacity="0.5" stroke-width="0.5" />
<path d="M230.8666666666667,-189.05430711610487 L230.8666666666667,-206.90074906367042 L261.0,-206.90074906367042 L261.0,-189.05430711610487 Z" fill="#a1d99b" stroke="white" opacity="0.5" stroke-width="0.5" />
<path d="M276.06666666666666,-189.05430711610487 L276.06666666666666,-206.90074906367042 L306.20000000000005,-206.90074906367042 L306.20000000000005,-189.05430711610487 Z" fill="#a1d99b" stroke="white" opacity="0.5" stroke-width="0.5" />
<path d="M321.2666666666667,-189.05430711610487 L321.2666666666667,-206.90074906367042 L351.4,-206.90074906367042 L351.4,-189.05430711610487 Z" fill="#a1d99b" stroke="white" opacity="0.5" stroke-width="0.5" />
<path d="M366.46666666666664,-189.05430711610487 L366.46666666666664,-206.90074906367042 L396.6,-206.90074906367042 L396.6,-189.05430711610487 Z" fill="#a1d99b" stroke="white" opacity="0.5" stroke-width="0.5" />
<path d="M411.6666666666667,-189.05430711610487 L411.6666666666667,-206.90074906367042 L441.79999999999995,-206.90074906367042 L441.79999999999995,-189.05430711610487 Z" fill="#a1d99b" stroke="white" opacity="0.5" stroke-width="0.5" />
<path d="M456.8666666666666,-189.05430711610487 L456.8666666666666,-206.90074906367042 L487.0,-206.90074906367042 L487.0,-189.05430711610487 Z" fill="#a1d99b" stroke="white" opacity="0.5" stroke-width="0.5" />
<path d="M502.06666666666666,-189.05430711610487 L502.06666666666666,-206.90074906367042 L532.1999999999999,-206.90074906367042 L532.1999999999999,-189.05430711610487 Z" fill="#a1d99b" stroke="white" opacity="0.5" stroke-width="0.5" />
<path d="M547.2666666666667,-189.05430711610487 L547.2666666666667,-206.90074906367042 L577.4,-206.90074906367042 L577.4,-189.05430711610487 Z" fill="#a1d99b" stroke="white" opacity="0.5" stroke-width="0.5" />
<path d="M592.4666666666667,-189.05430711610487 L592.4666666666667,-206.90074906367042 L622.5999999999999,-206.90074906367042 L622.5999999999999,-189.05430711610487 Z" fill="#a1d99b" stroke="white" opacity="0.5" stroke-width="0.5" />
<path d="M637.6666666666666,-189.05430711610487 L637.6666666666666,-206.90074906367042 L667.8,-206.90074906367042 L667.8,-189.05430711610487 Z" fill="#a1d99b" stroke="white" opacity="0.5" stroke-width="0.5" />
<path d="M682.8666666666667,-189.05430711610487 L682.8666666666667,-206.90074906367042 L712.9999999999999,-206.90074906367042 L712.9999999999999,-189.05430711610487 Z" fill="#a1d99b" stroke="white" opacity="0.5" stroke-width="0.5" />
<path d="M728.0666666666666,-189.05430711610487 L728.0666666666666,-206.90074906367042 L758.1999999999999,-206.90074906367042 L758.1999999999999,-189.05430711610487 Z" fill="#a1d99b" stroke="white" opacity="0.5" stroke-width="0.5" />
<path d="M773.2666666666667,-189.05430711610487 L773.2666666666667,-206.90074906367042 L803.4,-206.90074906367042 L803.4,-189.05430711610487 Z" fill="#a1d99b" stroke="white" opacity="0.5" stroke-width="0.5" />
<path d="M818.4666666666667,-189.05430711610487 L818.4666666666667,-206.90074906367042 L848.5999999999999,-206.90074906367042 L848.5999999999999,-189.05430711610487 Z" fill="#a1d99b" stroke="white" opacity="0.5" stroke-width="0.5" />
<path d="M863.6666666666666,-189.05430711610487 L863.6666666666666,-206.90074906367042 L893.8,-206.90074906367042 L893.8,-189.05430711610487 Z" fill="#a1d99b" stroke="white" opacity="0.5" stroke-width="0.5" />
<path d="M908.8666666666667,-189.05430711610487 L908.8666666666667,-206.90074906367042 L939.0,-206.90074906367042 L939.0,-189.05430711610487 Z" fill="#a1d99b" stroke="white" opacity="0.5" stroke-width="0.5" />
<path d="M954.0666666666667,-189.05430711610487 L954.0666666666667,-206.90074906367042 L984.1999999999999,-206.90074906367042 L984.1999999999999,-189.05430711610487 Z" fill="#a1d99b" stroke="white" opacity="0.5" stroke-width="0.5" />
<path d="M999.2666666666667,-189.05430711610487 L999.2666666666667,-206.90074906367042 L1029.3999999999999,-206.90074906367042 L1029.3999999999999,-189.05430711610487 Z" fill="#a1d99b" stroke="white" opacity="0.5" stroke-width="0.5" />
<path d="M1044.4666666666665,-189.05430711610487 L1044.4666666666665,-206.90074906367042 L1074.6,-206.90074906367042 L1074.6,-189.05430711610487 Z" fill="#a1d99b" stroke="white" opacity="0.5" stroke-width="0.5" />
<path d="M1089.6666666666665,-189.05430711610487 L1089.6666666666665,-206.90074906367042 L1119.8,-206.90074906367042 L1119.8,-189.05430711610487 Z" fill="#a1d99b" stroke="white" opacity="0.5" stroke-width="0.5" />
<path d="M50.06666666666667,-174.77153558052436 L50.06666666666667,-180.95505617977528 L80.2,-180.95505617977528 L80.2,-174.77153558052436 Z" fill="#a1d99b" stroke="white" opacity="0.5" stroke-width="0.5" />
<path d="M95.26666666666667,-174.77153558052436 L95.26666666666667,-180.95505617977528 L125.40000000000002,-180.95505617977528 L125.40000000000002,-174.77153558052436 Z" fill="#a1d99b" stroke="white" opacity="0.5" stroke-width="0.5" />
<path d="M140.4666666666667,-174.77153558052436 L140.4666666666667,-180.95505617977528 Q157.9666666666667,-180.95505617977528,156.03333333333336,-170.25 T170.60000000000002,-159.54494382022472 L170.60000000000002,-153.3614232209738 Q153.10000000000002,-153.3614232209738,155.03333333333336,-164.06647940074907 T140.4666666666667,-174.77153558052436 Z" fill="#a1d99b" stroke="white" opacity="0.5" stroke-width="0.5" />
<path d="M185.66666666666669,-153.3614232209738 L185.66666666666669,-159.54494382022472 L215.80000000000004,-159.54494382022472 L215.80000000000004,-153.3614232209738 Z" fill="#a1d99b" stroke="white" opacity="0.5" stroke-width="0.5" />
<path d="M230.8666666666667,-153.3614232209738 L230.8666666666667,-159.54494382022472 L261.0,-159.54494382022472 L261.0,-153.3614232209738 Z" fill="#a1d99b" stroke="white" opacity="0.5" stroke-width="0.5" />
<path d="M276.06666666666666,-153.3614232209738 L276.06666666666666,-159.54494382022472 Q293.56666666666666,-159.54494382022472,291.6333333333333,-170.25 T306.20000000000005,-180.95505617977528 L306.20000000000005,-174.77153558052436 Q288.70000000000005,-174.77153558052436,290.6333333333333,-164.06647940074907 T276.06666666666666,-153.3614232209738 Z" fill="#a1d99b" stroke="white" opacity="0.5" stroke-width="0.5" />
<path d="M185.66666666666669,-167.6441947565543 L185.66666666666669,-180.95505617977528 L215.80000000000004,-180.95505617977528 L215.80000000000004,-167.6441947565543 Z" fill="#a1d99b" stroke="white" opacity="0.5" stroke-width="0.5" />
<path d="M230.8666666666667,-167.6441947565543 L230.8666666666667,-180.95505617977528 L261.0,-180.95505617977528 L261.0,-167.6441947565543 Z" fill="#a1d99b" stroke="white" opacity="0.5" stroke-width="0.5" />
<path d="M276.06666666666666,-167.6441947565543 L276.06666666666666,-180.95505617977528 L487.0,-180.95505617977528 L487.0,-167.6441947565543 Z" fill="#a1d99b" stroke="white" opacity="0.5" stroke-width="0.5" />
<path d="M502.06666666666666,-167.6441947565543 L502.06666666666666,-180.95505617977528 L532.1999999999999,-180.95505617977528 L532.1999999999999,-167.6441947565543 Z" fill="#a1d99b" stroke="white" opacity="0.5" stroke-width="0.5" />
<path d="M547.2666666666667,-167.6441947565543 L547.2666666666667,-180.95505617977528 L577.4,-180.95505617977528 L577.4,-167.6441947565543 Z" fill="#a1d99b" stroke="white" opacity="0.5" stroke-width="0.5" />
<path d="M592.4666666666667,-167.6441947565543 L592.4666666666667,-180.95505617977528 L622.5999999999999,-180.95505617977528 L622.5999999999999,-167.6441947565543 Z" fill="#a1d99b" stroke="white" opacity="0.5" stroke-width="0.5" />
<path d="M637.6666666666666,-167.6441947565543 L637.6666666666666,-180.95505617977528 L667.8,-180.95505617977528 L667.8,-167.6441947565543 Z" fill="#a1d99b" stroke="white" opacity="0.5" stroke-width="0.5" />
<path d="M682.8666666666667,-167.6441947565543 L682.8666666666667,-180.95505617977528 L712.9999999999999,-180.95505617977528 L712.9999999999999,-167.6441947565543 Z" fill="#a1d99b" stroke="white" opacity="0.5" stroke-width="0.5" />
<path d="M728.0666666666666,-167.6441947565543 L728.0666666666666,-180.95505617977528 L758.1999999999999,-180.95505617977528 L758.1999999999999,-167.6441947565543 Z" fill="#a1d99b" stroke="white" opacity="0.5" stroke-width="0.5" />
<path d="M773.2666666666667,-167.6441947565543 L773.2666666666667,-180.95505617977528 L803.4,-180.95505617977528 L803.4,-167.6441947565543 Z" fill="#a1d99b" stroke="white" opacity="0.5" stroke-width="0.5" />
<path d="M818.4666666666667,-167.6441947565543 L818.4666666666667,-180.95505617977528 L848.5999999999999,-180.95505617977528 L848.5999999999999,-167.6441947565543 Z" fill="#a1d99b" stroke="white" opacity="0.5" stroke-width="0.5" />
<path d="M863.6666666666666,-167.6441947565543 L863.6666666666666,-180.95505617977528 L893.8,-180.95505617977528 L893.8,-167.6441947565543 Z" fill="#a1d99b" stroke="white" opacity="0.5" stroke-width="0.5" />
<path d="M908.8666666666667,-167.6441947565543 L908.8666666666667,-180.95505617977528 L939.0,-180.95505617977528 L939.0,-167.6441947565543 Z" fill="#d9d9d9" stroke="white" opacity="0.5" stroke-width="0.5" />
<path d="M954.0666666666667,-167.6441947565543 L954.0666666666667,-180.95505617977528 L984.1999999999999,-180.95505617977528 L984.1999999999999,-167.6441947565543 Z" fill="#d9d9d9" stroke="white" opacity="0.5" stroke-width="0.5" />
<path d="M999.2666666666667,-167.6441947565543 L999.2666666666667,-180.95505617977528 L1029.3999999999999,-180.95505617977528 L1029.3999999999999,-167.6441947565543 Z" fill="#d9d9d9" stroke="white" opacity="0.5" stroke-width="0.5" />
<path d="M1044.4666666666665,-167.6441947565543 L1044.4666666666665,-180.95505617977528 L1074.6,-180.95505617977528 L1074.6,-167.6441947565543 Z" fill="#d9d9d9" stroke="white" opacity="0.5" stroke-width="0.5" />
<path d="M1089.6666666666665,-167.6441947565543 L1089.6666666666665,-180.95505617977528 L1119.8,-180.95505617977528 L1119.8,-167.6441947565543 Z" fill="#d9d9d9" stroke="white" opacity="0.5" stroke-width="0.5" />
<path d="M502.06666666666666,-148.17790262172284 L502.06666666666666,-159.54494382022472 L532.1999999999999,-159.54494382022472 L532.1999999999999,-148.17790262172284 Z" fill="#a1d99b" stroke="white" opacity="0.5" stroke-width="0.5" />
<path d="M547.2666666666667,-148.17790262172284 L547.2666666666667,-159.54494382022472 L577.4,-159.54494382022472 L577.4,-148.17790262172284 Z" fill="#a1d99b" stroke="white" opacity="0.5" stroke-width="0.5" />
<path d="M592.4666666666667,-148.17790262172284 L592.4666666666667,-159.54494382022472 L622.5999999999999,-159.54494382022472 L622.5999999999999,-148.17790262172284 Z" fill="#a1d99b" stroke="white" opacity="0.5" stroke-width="0.5" />
<path d="M637.6666666666666,-148.17790262172284 L637.6666666666666,-159.54494382022472 L667.8,-159.54494382022472 L667.8,-148.17790262172284 Z" fill="#a1d99b" stroke="white" opacity="0.5" stroke-width="0.5" />
<path d="M682.8666666666667,-148.17790262172284 L682.8666666666667,-159.54494382022472 L712.9999999999999,-159.54494382022472 L712.9999999999999,-148.17790262172284 Z" fill="#a1d99b" stroke="white" opacity="0.5" stroke-width="0.5" />
<path d="M728.0666666666666,-148.17790262172284 L728.0666666666666,-159.54494382022472 L758.1999999999999,-159.54494382022472 L758.1999999999999,-148.17790262172284 Z" fill="#a1d99b" stroke="white" opacity="0.5" stroke-width="0.5" />
<path d="M773.2666666666667,-148.17790262172284 L773.2666666666667,-159.54494382022472 L803.4,-159.54494382022472 L803.4,-148.17790262172284 Z" fill="#a1d99b" stroke="white" opacity="0.5" stroke-width="0.5" />
<path d="M818.4666666666667,-148.17790262172284 L818.4666666666667,-159.54494382022472 L848.5999999999999,-159.54494382022472 L848.5999999999999,-148.17790262172284 Z" fill="#a1d99b" stroke="white" opacity="0.5" stroke-width="0.5" />
<path d="M863.6666666666666,-148.17790262172284 L863.6666666666666,-159.54494382022472 L893.8,-159.54494382022472 L893.8,-148.17790262172284 Z" fill="#a1d99b" stroke="white" opacity="0.5" stroke-width="0.5" />
<path d="M908.8666666666667,-148.17790262172284 L908.8666666666667,-159.54494382022472 L939.0,-159.54494382022472 L939.0,-148.17790262172284 Z" fill="#d9d9d9" stroke="white" opacity="0.5" stroke-width="0.5" />
<path d="M954.0666666666667,-148.17790262172284 L954.0666666666667,-159.54494382022472 L984.1999999999999,-159.54494382022472 L984.1999999999999,-148.17790262172284 Z" fill="#d9d9d9" stroke="white" opacity="0.5" stroke-width="0.5" />
<path d="M999.2666666666667,-148.17790262172284 L999.2666666666667,-159.54494382022472 L1029.3999999999999,-159.54494382022472 L1029.3999999999999,-148.17790262172284 Z" fill="#d9d9d9" stroke="white" opacity="0.5" stroke-width="0.5" />
<path d="M1044.4666666666665,-148.17790262172284 L1044.4666666666665,-159.54494382022472 L1074.6,-159.54494382022472 L1074.6,-148.17790262172284 Z" fill="#d9d9d9" stroke="white" opacity="0.5" stroke-width="0.5" />
<path d="M1089.6666666666665,-148.17790262172284 L1089.6666666666665,-159.54494382022472 L1119.8,-159.54494382022472 L1119.8,-148.17790262172284 Z" fill="#d9d9d9" stroke="white" opacity="0.5" stroke-width="0.5" />
<path d="M637.6666666666666,-130.65543071161048 L637.6666666666666,-140.07865168539325 L667.8,-140.07865168539325 L667.8,-130.65543071161048 Z" fill="#d9d9d9" stroke="white" opacity="0.5" stroke-width="0.5" />
<path d="M682.8666666666667,-130.65543071161048 L682.8666666666667,-140.07865168539325 L712.9999999999999,-140.07865168539325 L712.9999999999999,-130.65543071161048 Z" fill="#d9d9d9" stroke="white" opacity="0.5" stroke-width="0.5" />
<path d="M728.0666666666666,-130.65543071161048 L728.0666666666666,-140.07865168539325 L758.1999999999999,-140.07865168539325 L758.1999999999999,-130.65543071161048 Z" fill="#d9d9d9" stroke="white" opacity="0.5" stroke-width="0.5" />
<path d="M773.2666666666667,-130.65543071161048 L773.2666666666667,-140.07865168539325 L803.4,-140.07865168539325 L803.4,-130.65543071161048 Z" fill="#d9d9d9" stroke="white" opacity="0.5" stroke-width="0.5" />
<path d="M818.4666666666667,-130.65543071161048 L818.4666666666667,-140.07865168539325 L848.5999999999999,-140.07865168539325 L848.5999999999999,-130.65543071161048 Z" fill="#d9d9d9" stroke="white" opacity="0.5" stroke-width="0.5" />
<path d="M863.6666666666666,-130.65543071161048 L863.6666666666666,-140.07865168539325 L893.8,-140.07865168539325 L893.8,-130.65543071161048 Z" fill="#d9d9d9" stroke="white" opacity="0.5" stroke-width="0.5" />
<path d="M908.8666666666667,-130.65543071161048 L908.8666666666667,-140.07865168539325 L939.0,-140.07865168539325 L939.0,-130.65543071161048 Z" fill="#d9d9d9" stroke="white" opacity="0.5" stroke-width="0.5" />
<path d="M954.0666666666667,-130.65543071161048 L954.0666666666667,-140.07865168539325 L984.1999999999999,-140.07865168539325 L984.1999999999999,-130.65543071161048 Z" fill="#d9d9d9" stroke="white" opacity="0.5" stroke-width="0.5" />
<path d="M999.2666666666667,-130.65543071161048 L999.2666666666667,-140.07865168539325 L1029.3999999999999,-140.07865168539325 L1029.3999999999999,-130.65543071161048 Z" fill="#d9d9d9" stroke="white" opacity="0.5" stroke-width="0.5" />
<path d="M1044.4666666666665,-130.65543071161048 L1044.4666666666665,-140.07865168539325 L1074.6,-140.07865168539325 L1074.6,-130.65543071161048 Z" fill="#d9d9d9" stroke="white" opacity="0.5" stroke-width="0.5" />
<path d="M1089.6666666666665,-130.65543071161048 L1089.6666666666665,-140.07865168539325 L1119.8,-140.07865168539325 L1119.8,-130.65543071161048 Z" fill="#d9d9d9" stroke="white" opacity="0.5" stroke-width="0.5" />
<path d="M1089.6666666666665,-119.61235955056179 L1089.6666666666665,-122.5561797752809 L1119.8,-122.5561797752809 L1119.8,-119.61235955056179 Z" fill="#d9d9d9" stroke="white" opacity="0.5" stroke-width="0.5" />
<path d="M1089.6666666666665,-108.5692883895131 L1089.6666666666665,-111.51310861423221 L1119.8,-111.51310861423221 L1119.8,-108.5692883895131 Z" fill="#d9d9d9" stroke="white" opacity="0.5" stroke-width="0.5" />
<rect x="35" y="-206.90074906367042" width="15.066666666666668" height="17.84644194756554" fill="#4BA167" stroke="#4BA167" />
<text x="55.71666666666667" y="-197.97752808988764" font-size="4" font-family="sans-serif" fill="black" dy="0em">email</text>
<rect x="35" y="-180.95505617977528" width="15.066666666666668" height="6.1835205992509366" fill="#4BA167" stroke="#4BA167" />
<text x="55.71666666666667" y="-177.86329588014982" font-size="4" font-family="sans-serif" fill="black" dy="0em">create_event</text>
<rect x="35" y="-166.67228464419478" width="15.066666666666668" height="2.295880149812734" fill="#4BA167" stroke="#4BA167" />
<text x="55.71666666666667" y="-165.5243445692884" font-size="4" font-family="sans-serif" fill="black" dy="0em">create_listing</text>
<rect x="80.2" y="-206.90074906367042" width="15.066666666666668" height="17.84644194756554" fill="#a1d99b" stroke="#a1d99b" />
<text x="100.91666666666667" y="-197.97752808988764" font-size="4" font-family="sans-serif" fill="black" dy="0em">email</text>
<rect x="80.2" y="-180.95505617977528" width="15.066666666666668" height="6.1835205992509366" fill="#a1d99b" stroke="#a1d99b" />
<text x="100.91666666666667" y="-177.86329588014982" font-size="4" font-family="sans-serif" fill="black" dy="0em">create_event</text>
<rect x="80.2" y="-166.67228464419478" width="15.066666666666668" height="2.295880149812734" fill="#4BA167" stroke="#4BA167" />
<text x="100.91666666666667" y="-165.5243445692884" font-size="4" font-family="sans-serif" fill="black" dy="0em">create_note</text>
<rect x="125.40000000000002" y="-206.90074906367042" width="15.066666666666668" height="17.84644194756554" fill="#a1d99b" stroke="#a1d99b" />
<text x="146.1166666666667" y="-197.97752808988764" font-size="4" font-family="sans-serif" fill="black" dy="0em">email</text>
<rect x="125.40000000000002" y="-180.95505617977528" width="15.066666666666668" height="6.1835205992509366" fill="#a1d99b" stroke="#a1d99b" />
<text x="146.1166666666667" y="-177.86329588014982" font-size="4" font-family="sans-serif" fill="black" dy="0em">create_event</text>
<rect x="170.60000000000002" y="-206.90074906367042" width="15.066666666666668" height="17.84644194756554" fill="#a1d99b" stroke="#a1d99b" />
<text x="191.3166666666667" y="-197.97752808988764" font-size="4" font-family="sans-serif" fill="black" dy="0em">email</text>
<rect x="170.60000000000002" y="-180.95505617977528" width="15.066666666666668" height="13.310861423220974" fill="#4BA167" stroke="#4BA167" />
<text x="191.3166666666667" y="-174.29962546816478" font-size="4" font-family="sans-serif" fill="black" dy="0em">ads_management</text>
<rect x="170.60000000000002" y="-159.54494382022472" width="15.066666666666668" height="6.1835205992509366" fill="#a1d99b" stroke="#a1d99b" />
<text x="191.3166666666667" y="-156.45318352059925" font-size="4" font-family="sans-serif" fill="black" dy="0em">create_event</text>
<rect x="215.80000000000004" y="-206.90074906367042" width="15.066666666666668" height="17.84644194756554" fill="#a1d99b" stroke="#a1d99b" />
<text x="236.5166666666667" y="-197.97752808988764" font-size="4" font-family="sans-serif" fill="black" dy="0em">email</text>
<rect x="215.80000000000004" y="-180.95505617977528" width="15.066666666666668" height="13.310861423220974" fill="#a1d99b" stroke="#a1d99b" />
<text x="236.5166666666667" y="-174.29962546816478" font-size="4" font-family="sans-serif" fill="black" dy="0em">ads_management</text>
<rect x="215.80000000000004" y="-159.54494382022472" width="15.066666666666668" height="6.1835205992509366" fill="#a1d99b" stroke="#a1d99b" />
<text x="236.5166666666667" y="-156.45318352059925" font-size="4" font-family="sans-serif" fill="black" dy="0em">create_event</text>
<rect x="261.0" y="-206.90074906367042" width="15.066666666666668" height="17.84644194756554" fill="#a1d99b" stroke="#a1d99b" />
<text x="281.71666666666664" y="-197.97752808988764" font-size="4" font-family="sans-serif" fill="black" dy="0em">email</text>
<rect x="261.0" y="-180.95505617977528" width="15.066666666666668" height="13.310861423220974" fill="#a1d99b" stroke="#a1d99b" />
<text x="281.71666666666664" y="-174.29962546816478" font-size="4" font-family="sans-serif" fill="black" dy="0em">ads_management</text>
<rect x="261.0" y="-159.54494382022472" width="15.066666666666668" height="6.1835205992509366" fill="#a1d99b" stroke="#a1d99b" />
<text x="281.71666666666664" y="-156.45318352059925" font-size="4" font-family="sans-serif" fill="black" dy="0em">create_event</text>
<rect x="306.20000000000005" y="-206.90074906367042" width="15.066666666666668" height="17.84644194756554" fill="#a1d99b" stroke="#a1d99b" />
<text x="326.9166666666667" y="-197.97752808988764" font-size="4" font-family="sans-serif" fill="black" dy="0em">email</text>
<rect x="306.20000000000005" y="-180.95505617977528" width="15.066666666666668" height="6.1835205992509366" fill="#A04B83" stroke="#A04B83" />
<text x="326.9166666666667" y="-177.86329588014982" font-size="4" font-family="sans-serif" fill="black" dy="0em">create_event</text>
<rect x="351.4" y="-206.90074906367042" width="15.066666666666668" height="17.84644194756554" fill="#a1d99b" stroke="#a1d99b" />
<text x="372.1166666666666" y="-197.97752808988764" font-size="4" font-family="sans-serif" fill="black" dy="0em">email</text>
<rect x="396.6" y="-206.90074906367042" width="15.066666666666668" height="17.84644194756554" fill="#a1d99b" stroke="#a1d99b" />
<text x="417.31666666666666" y="-197.97752808988764" font-size="4" font-family="sans-serif" fill="black" dy="0em">email</text>
<rect x="441.79999999999995" y="-206.90074906367042" width="15.066666666666668" height="17.84644194756554" fill="#a1d99b" stroke="#a1d99b" />
<text x="462.5166666666666" y="-197.97752808988764" font-size="4" font-family="sans-serif" fill="black" dy="0em">email</text>
<rect x="487.0" y="-206.90074906367042" width="15.066666666666668" height="17.84644194756554" fill="#a1d99b" stroke="#a1d99b" />
<text x="507.71666666666664" y="-197.97752808988764" font-size="4" font-family="sans-serif" fill="black" dy="0em">email</text>
<rect x="487.0" y="-180.95505617977528" width="15.066666666666668" height="13.310861423220974" fill="#a1d99b" stroke="#a1d99b" />
<text x="507.71666666666664" y="-174.29962546816478" font-size="4" font-family="sans-serif" fill="black" dy="0em">ads_management</text>
<rect x="487.0" y="-159.54494382022472" width="15.066666666666668" height="11.367041198501873" fill="#4BA167" stroke="#4BA167" />
<text x="507.71666666666664" y="-153.86142322097376" font-size="4" font-family="sans-serif" fill="black" dy="0em">ads_read</text>
<rect x="532.1999999999999" y="-206.90074906367042" width="15.066666666666668" height="17.84644194756554" fill="#a1d99b" stroke="#a1d99b" />
<text x="552.9166666666666" y="-197.97752808988764" font-size="4" font-family="sans-serif" fill="black" dy="0em">email</text>
<rect x="532.1999999999999" y="-180.95505617977528" width="15.066666666666668" height="13.310861423220974" fill="#a1d99b" stroke="#a1d99b" />
<text x="552.9166666666666" y="-174.29962546816478" font-size="4" font-family="sans-serif" fill="black" dy="0em">ads_management</text>
<rect x="532.1999999999999" y="-159.54494382022472" width="15.066666666666668" height="11.367041198501873" fill="#a1d99b" stroke="#a1d99b" />
<text x="552.9166666666666" y="-153.86142322097376" font-size="4" font-family="sans-serif" fill="black" dy="0em">ads_read</text>
<rect x="577.4" y="-206.90074906367042" width="15.066666666666668" height="17.84644194756554" fill="#a1d99b" stroke="#a1d99b" />
<text x="598.1166666666667" y="-197.97752808988764" font-size="4" font-family="sans-serif" fill="black" dy="0em">email</text>
<rect x="577.4" y="-180.95505617977528" width="15.066666666666668" height="13.310861423220974" fill="#a1d99b" stroke="#a1d99b" />
<text x="598.1166666666667" y="-174.29962546816478" font-size="4" font-family="sans-serif" fill="black" dy="0em">ads_management</text>
<rect x="577.4" y="-159.54494382022472" width="15.066666666666668" height="11.367041198501873" fill="#a1d99b" stroke="#a1d99b" />
<text x="598.1166666666667" y="-153.86142322097376" font-size="4" font-family="sans-serif" fill="black" dy="0em">ads_read</text>
<rect x="622.5999999999999" y="-206.90074906367042" width="15.066666666666668" height="17.84644194756554" fill="#a1d99b" stroke="#a1d99b" />
<text x="643.3166666666666" y="-197.97752808988764" font-size="4" font-family="sans-serif" fill="black" dy="0em">email</text>
<rect x="622.5999999999999" y="-180.95505617977528" width="15.066666666666668" height="13.310861423220974" fill="#a1d99b" stroke="#a1d99b" />
<text x="643.3166666666666" y="-174.29962546816478" font-size="4" font-family="sans-serif" fill="black" dy="0em">ads_management</text>
<rect x="622.5999999999999" y="-159.54494382022472" width="15.066666666666668" height="11.367041198501873" fill="#a1d99b" stroke="#a1d99b" />
<text x="643.3166666666666" y="-153.86142322097376" font-size="4" font-family="sans-serif" fill="black" dy="0em">ads_read</text>
<rect x="622.5999999999999" y="-140.07865168539325" width="15.066666666666668" height="9.42322097378277" fill="#4BA167" stroke="#4BA167" />
<text x="643.3166666666666" y="-135.36704119850185" font-size="3" font-family="sans-serif" fill="black" dy="0em">business_management</text>
<rect x="667.8" y="-206.90074906367042" width="15.066666666666668" height="17.84644194756554" fill="#a1d99b" stroke="#a1d99b" />
<text x="688.5166666666667" y="-197.97752808988764" font-size="4" font-family="sans-serif" fill="black" dy="0em">email</text>
<rect x="667.8" y="-180.95505617977528" width="15.066666666666668" height="13.310861423220974" fill="#a1d99b" stroke="#a1d99b" />
<text x="688.5166666666667" y="-174.29962546816478" font-size="4" font-family="sans-serif" fill="black" dy="0em">ads_management</text>
<rect x="667.8" y="-159.54494382022472" width="15.066666666666668" height="11.367041198501873" fill="#a1d99b" stroke="#a1d99b" />
<text x="688.5166666666667" y="-153.86142322097376" font-size="4" font-family="sans-serif" fill="black" dy="0em">ads_read</text>
<rect x="667.8" y="-140.07865168539325" width="15.066666666666668" height="9.42322097378277" fill="#d9d9d9" stroke="#d9d9d9" />
<text x="688.5166666666667" y="-135.36704119850185" font-size="3" font-family="sans-serif" fill="black" dy="0em">business_management</text>
<rect x="712.9999999999999" y="-206.90074906367042" width="15.066666666666668" height="17.84644194756554" fill="#a1d99b" stroke="#a1d99b" />
<text x="733.7166666666666" y="-197.97752808988764" font-size="4" font-family="sans-serif" fill="black" dy="0em">email</text>
<rect x="712.9999999999999" y="-180.95505617977528" width="15.066666666666668" height="13.310861423220974" fill="#a1d99b" stroke="#a1d99b" />
<text x="733.7166666666666" y="-174.29962546816478" font-size="4" font-family="sans-serif" fill="black" dy="0em">ads_management</text>
<rect x="712.9999999999999" y="-159.54494382022472" width="15.066666666666668" height="11.367041198501873" fill="#a1d99b" stroke="#a1d99b" />
<text x="733.7166666666666" y="-153.86142322097376" font-size="4" font-family="sans-serif" fill="black" dy="0em">ads_read</text>
<rect x="712.9999999999999" y="-140.07865168539325" width="15.066666666666668" height="9.42322097378277" fill="#d9d9d9" stroke="#d9d9d9" />
<text x="733.7166666666666" y="-135.36704119850185" font-size="3" font-family="sans-serif" fill="black" dy="0em">business_management</text>
<rect x="758.1999999999999" y="-206.90074906367042" width="15.066666666666668" height="17.84644194756554" fill="#a1d99b" stroke="#a1d99b" />
<text x="778.9166666666666" y="-197.97752808988764" font-size="4" font-family="sans-serif" fill="black" dy="0em">email</text>
<rect x="758.1999999999999" y="-180.95505617977528" width="15.066666666666668" height="13.310861423220974" fill="#a1d99b" stroke="#a1d99b" />
<text x="778.9166666666666" y="-174.29962546816478" font-size="4" font-family="sans-serif" fill="black" dy="0em">ads_management</text>
<rect x="758.1999999999999" y="-159.54494382022472" width="15.066666666666668" height="11.367041198501873" fill="#a1d99b" stroke="#a1d99b" />
<text x="778.9166666666666" y="-153.86142322097376" font-size="4" font-family="sans-serif" fill="black" dy="0em">ads_read</text>
<rect x="758.1999999999999" y="-140.07865168539325" width="15.066666666666668" height="9.42322097378277" fill="#d9d9d9" stroke="#d9d9d9" />
<text x="778.9166666666666" y="-135.36704119850185" font-size="3" font-family="sans-serif" fill="black" dy="0em">business_management</text>
<rect x="803.4" y="-206.90074906367042" width="15.066666666666668" height="17.84644194756554" fill="#a1d99b" stroke="#a1d99b" />
<text x="824.1166666666667" y="-197.97752808988764" font-size="4" font-family="sans-serif" fill="black" dy="0em">email</text>
<rect x="803.4" y="-180.95505617977528" width="15.066666666666668" height="13.310861423220974" fill="#a1d99b" stroke="#a1d99b" />
<text x="824.1166666666667" y="-174.29962546816478" font-size="4" font-family="sans-serif" fill="black" dy="0em">ads_management</text>
<rect x="803.4" y="-159.54494382022472" width="15.066666666666668" height="11.367041198501873" fill="#a1d99b" stroke="#a1d99b" />
<text x="824.1166666666667" y="-153.86142322097376" font-size="4" font-family="sans-serif" fill="black" dy="0em">ads_read</text>
<rect x="803.4" y="-140.07865168539325" width="15.066666666666668" height="9.42322097378277" fill="#d9d9d9" stroke="#d9d9d9" />
<text x="824.1166666666667" y="-135.36704119850185" font-size="3" font-family="sans-serif" fill="black" dy="0em">business_management</text>
<rect x="848.5999999999999" y="-206.90074906367042" width="15.066666666666668" height="17.84644194756554" fill="#a1d99b" stroke="#a1d99b" />
<text x="869.3166666666666" y="-197.97752808988764" font-size="4" font-family="sans-serif" fill="black" dy="0em">email</text>
<rect x="848.5999999999999" y="-180.95505617977528" width="15.066666666666668" height="13.310861423220974" fill="#a1d99b" stroke="#a1d99b" />
<text x="869.3166666666666" y="-174.29962546816478" font-size="4" font-family="sans-serif" fill="black" dy="0em">ads_management</text>
<rect x="848.5999999999999" y="-159.54494382022472" width="15.066666666666668" height="11.367041198501873" fill="#a1d99b" stroke="#a1d99b" />
<text x="869.3166666666666" y="-153.86142322097376" font-size="4" font-family="sans-serif" fill="black" dy="0em">ads_read</text>
<rect x="848.5999999999999" y="-140.07865168539325" width="15.066666666666668" height="9.42322097378277" fill="#d9d9d9" stroke="#d9d9d9" />
<text x="869.3166666666666" y="-135.36704119850185" font-size="3" font-family="sans-serif" fill="black" dy="0em">business_management</text>
<rect x="893.8" y="-206.90074906367042" width="15.066666666666668" height="17.84644194756554" fill="#a1d99b" stroke="#a1d99b" />
<text x="914.5166666666667" y="-197.97752808988764" font-size="4" font-family="sans-serif" fill="black" dy="0em">email</text>
<rect x="893.8" y="-180.95505617977528" width="15.066666666666668" height="13.310861423220974" fill="#d9d9d9" stroke="#d9d9d9" />
<text x="914.5166666666667" y="-174.29962546816478" font-size="4" font-family="sans-serif" fill="black" dy="0em">ads_management</text>
<rect x="893.8" y="-159.54494382022472" width="15.066666666666668" height="11.367041198501873" fill="#d9d9d9" stroke="#d9d9d9" />
<text x="914.5166666666667" y="-153.86142322097376" font-size="4" font-family="sans-serif" fill="black" dy="0em">ads_read</text>
<rect x="893.8" y="-140.07865168539325" width="15.066666666666668" height="9.42322097378277" fill="#d9d9d9" stroke="#d9d9d9" />
<text x="914.5166666666667" y="-135.36704119850185" font-size="3" font-family="sans-serif" fill="black" dy="0em">business_management</text>
<rect x="939.0" y="-206.90074906367042" width="15.066666666666668" height="17.84644194756554" fill="#a1d99b" stroke="#a1d99b" />
<text x="959.7166666666667" y="-197.97752808988764" font-size="4" font-family="sans-serif" fill="black" dy="0em">email</text>
<rect x="939.0" y="-180.95505617977528" width="15.066666666666668" height="13.310861423220974" fill="#d9d9d9" stroke="#d9d9d9" />
<text x="959.7166666666667" y="-174.29962546816478" font-size="4" font-family="sans-serif" fill="black" dy="0em">ads_management</text>
<rect x="939.0" y="-159.54494382022472" width="15.066666666666668" height="11.367041198501873" fill="#d9d9d9" stroke="#d9d9d9" />
<text x="959.7166666666667" y="-153.86142322097376" font-size="4" font-family="sans-serif" fill="black" dy="0em">ads_read</text>
<rect x="939.0" y="-140.07865168539325" width="15.066666666666668" height="9.42322097378277" fill="#d9d9d9" stroke="#d9d9d9" />
<text x="959.7166666666667" y="-135.36704119850185" font-size="3" font-family="sans-serif" fill="black" dy="0em">business_management</text>
<rect x="984.1999999999999" y="-206.90074906367042" width="15.066666666666668" height="17.84644194756554" fill="#a1d99b" stroke="#a1d99b" />
<text x="1004.9166666666666" y="-197.97752808988764" font-size="4" font-family="sans-serif" fill="black" dy="0em">email</text>
<rect x="984.1999999999999" y="-180.95505617977528" width="15.066666666666668" height="13.310861423220974" fill="#d9d9d9" stroke="#d9d9d9" />
<text x="1004.9166666666666" y="-174.29962546816478" font-size="4" font-family="sans-serif" fill="black" dy="0em">ads_management</text>
<rect x="984.1999999999999" y="-159.54494382022472" width="15.066666666666668" height="11.367041198501873" fill="#d9d9d9" stroke="#d9d9d9" />
<text x="1004.9166666666666" y="-153.86142322097376" font-size="4" font-family="sans-serif" fill="black" dy="0em">ads_read</text>
<rect x="984.1999999999999" y="-140.07865168539325" width="15.066666666666668" height="9.42322097378277" fill="#d9d9d9" stroke="#d9d9d9" />
<text x="1004.9166666666666" y="-135.36704119850185" font-size="3" font-family="sans-serif" fill="black" dy="0em">business_management</text>
<rect x="1029.3999999999999" y="-206.90074906367042" width="15.066666666666668" height="17.84644194756554" fill="#a1d99b" stroke="#a1d99b" />
<text x="1050.1166666666666" y="-197.97752808988764" font-size="4" font-family="sans-serif" fill="black" dy="0em">email</text>
<rect x="1029.3999999999999" y="-180.95505617977528" width="15.066666666666668" height="13.310861423220974" fill="#d9d9d9" stroke="#d9d9d9" />
<text x="1050.1166666666666" y="-174.29962546816478" font-size="4" font-family="sans-serif" fill="black" dy="0em">ads_management</text>
<rect x="1029.3999999999999" y="-159.54494382022472" width="15.066666666666668" height="11.367041198501873" fill="#d9d9d9" stroke="#d9d9d9" />
<text x="1050.1166666666666" y="-153.86142322097376" font-size="4" font-family="sans-serif" fill="black" dy="0em">ads_read</text>
<rect x="1029.3999999999999" y="-140.07865168539325" width="15.066666666666668" height="9.42322097378277" fill="#d9d9d9" stroke="#d9d9d9" />
<text x="1050.1166666666666" y="-135.36704119850185" font-size="3" font-family="sans-serif" fill="black" dy="0em">business_management</text>
<rect x="1074.6" y="-206.90074906367042" width="15.066666666666668" height="17.84644194756554" fill="#a1d99b" stroke="#a1d99b" />
<text x="1095.3166666666666" y="-197.97752808988764" font-size="4" font-family="sans-serif" fill="black" dy="0em">email</text>
<rect x="1074.6" y="-180.95505617977528" width="15.066666666666668" height="13.310861423220974" fill="#d9d9d9" stroke="#d9d9d9" />
<text x="1095.3166666666666" y="-174.29962546816478" font-size="4" font-family="sans-serif" fill="black" dy="0em">ads_management</text>
<rect x="1074.6" y="-159.54494382022472" width="15.066666666666668" height="11.367041198501873" fill="#d9d9d9" stroke="#d9d9d9" />
<text x="1095.3166666666666" y="-153.86142322097376" font-size="4" font-family="sans-serif" fill="black" dy="0em">ads_read</text>
<rect x="1074.6" y="-140.07865168539325" width="15.066666666666668" height="9.42322097378277" fill="#d9d9d9" stroke="#d9d9d9" />
<text x="1095.3166666666666" y="-135.36704119850185" font-size="3" font-family="sans-serif" fill="black" dy="0em">business_management</text>
<rect x="1074.6" y="-122.5561797752809" width="15.066666666666668" height="2.9438202247191008" fill="#4BA167" stroke="#4BA167" />
<text x="1095.3166666666666" y="-121.08426966292134" font-size="3" font-family="sans-serif" fill="black" dy="0em">attribution_read</text>
<rect x="1074.6" y="-111.51310861423221" width="15.066666666666668" height="2.9438202247191008" fill="#4BA167" stroke="#4BA167" />
<text x="1095.3166666666666" y="-110.04119850187266" font-size="3" font-family="sans-serif" fill="black" dy="0em">catalog_management</text>
<rect x="1119.8" y="-206.90074906367042" width="15.066666666666668" height="17.84644194756554" fill="#a1d99b" stroke="#a1d99b" />
<text x="1140.5166666666667" y="-197.97752808988764" font-size="4" font-family="sans-serif" fill="black" dy="0em">email</text>
<rect x="1119.8" y="-180.95505617977528" width="15.066666666666668" height="13.310861423220974" fill="#d9d9d9" stroke="#d9d9d9" />
<text x="1140.5166666666667" y="-174.29962546816478" font-size="4" font-family="sans-serif" fill="black" dy="0em">ads_management</text>
<rect x="1119.8" y="-159.54494382022472" width="15.066666666666668" height="11.367041198501873" fill="#d9d9d9" stroke="#d9d9d9" />
<text x="1140.5166666666667" y="-153.86142322097376" font-size="4" font-family="sans-serif" fill="black" dy="0em">ads_read</text>
<rect x="1119.8" y="-140.07865168539325" width="15.066666666666668" height="9.42322097378277" fill="#d9d9d9" stroke="#d9d9d9" />
<text x="1140.5166666666667" y="-135.36704119850185" font-size="4" font-family="sans-serif" fill="black" dy="0em">business_management</text>
<rect x="1119.8" y="-122.5561797752809" width="15.066666666666668" height="2.9438202247191008" fill="#d9d9d9" stroke="#d9d9d9" />
<text x="1140.5166666666667" y="-121.08426966292134" font-size="4" font-family="sans-serif" fill="black" dy="0em">attribution_read</text>
<rect x="1119.8" y="-111.51310861423221" width="15.066666666666668" height="2.9438202247191008" fill="#d9d9d9" stroke="#d9d9d9" />
<text x="1140.5166666666667" y="-110.04119850187266" font-size="4" font-family="sans-serif" fill="black" dy="0em">catalog_management</text>
<text x="35" y="-85.97425116195116" font-size="4" font-family="sans-serif" fill="black" dy="0em">Legend</text>
<rect x="35" y="-81.23250033843236" width="15.066666666666668" height="12.39750011281079" fill="#a1d99b" stroke="#a1d99b" />
<text x="53.833333333333336" y="-68.83500022562157" font-size="4" fill="black" dy="0em">No Review</text>
<rect x="35" y="-59.79500022562157" width="15.066666666666668" height="12.39750011281079" fill="#d9d9d9" stroke="#d9d9d9" />
<text x="53.833333333333336" y="-47.39750011281078" font-size="4" fill="black" dy="0em">Review</text>
</svg>